<?xml version="1.0" encoding="utf-8"?>

<!DOCTYPE svg PUBLIC "-//W3C//DTD SVG 1.1//EN" "http://www.w3.org/Graphics/SVG/1.1/DTD/svg11.dtd">
<svg version="1.1" id="Layer_1" xmlns="http://www.w3.org/2000/svg" xmlns:xlink="http://www.w3.org/1999/xlink" x="0px" y="0px"
	 viewBox="467.7933 -48.3767 1028.2067 1989.7357" enable-background="new 467.7933 -48.3767 1028.2067 1989.7357"
	 xml:space="preserve">
<path fill="#111111" d="M1460.3545,1011.8232c-0.9775-2.6006-1.5195-5.3584-2.0449-8.0254
	c-0.444-2.2578-0.9043-4.5907-1.6273-6.8233c0.7361-0.5667,0.9225-1.8869,0.6302-2.7841c-0.2378-0.7258-0.7427-1.088-1.3986-1.0254
	c-0.2924-5.3007-1.0095-10.6484-1.703-15.8213c-0.2617-1.9463-0.5313-3.959-0.7744-5.9395
	c-0.498-4.2041-1.5664-8.3584-2.5996-12.377c-1.002-3.897-2.0381-7.9272-2.5498-11.9912c-0.2656-3.292-1.0615-6.5342-1.832-9.6699
	c-0.6807-2.7734-1.3857-5.6416-1.7197-8.5352c-1.3848-7.2705-2.625-14.6968-3.8252-21.8784
	c-1.3176-7.8896-2.6804-16.0473-4.2405-24.0291c0.7595-0.7457,1.0513-2.4486,0.6096-3.5964
	c-0.2695-0.6992-0.7773-1.0945-1.4277-1.1267l-0.1932-1.3286c0.7822-1.017,1.0709-3.0042,0.6171-4.2678
	c-0.2573-0.715-0.7263-1.168-1.3557-1.319l-0.2412-1.3355c0.7577-1.069,1.0076-3.1122,0.5325-4.3894
	c-0.259-0.6959-0.7129-1.1403-1.3091-1.2938l-0.2231-1.2946c0.7267-0.8878,0.9766-2.7171,0.5215-3.8574
	c-0.2433-0.6125-0.6687-0.972-1.2273-1.0508c-0.0315-0.2883-0.0809-0.7049-0.1311-1.122c-0.0471-0.3986-0.094-0.7913-0.1234-1.0624
	c0.6656-1.0311,1.0348-3.0897,0.5013-4.4195c-0.2593-0.6454-0.6934-1.0443-1.2849-1.193c-0.1958-5.4836-1.1133-10.996-2.0012-16.327
	c-0.3064-1.8424-0.6234-3.7472-0.9063-5.6232c-0.0249-3.8759-0.6887-7.7464-1.3301-11.4896
	c-0.4346-2.5371-0.8848-5.1606-1.1309-7.7612l-0.0049-0.0464l-0.6932,0.0604l-0.1019-0.5573
	c-0.167-3.3239-0.4983-6.8348-1.7817-9.9934c-2.0363-12.2781-5.9362-24.3228-9.7073-35.9706
	c-0.4756-1.4678-0.9512-2.9351-1.4229-4.4038c-0.9561-2.7573-1.9043-5.5718-2.8223-8.2939
	c-3.082-9.1499-6.2705-18.6108-10.3398-27.5615c-3.4951-6.9731-5.6475-14.5986-7.7295-21.9731
	c-0.6323-2.2395-1.2852-4.5547-1.9663-6.8152c-0.2302-3.3235-0.5421-6.2886-2.0308-8.9043
	c-0.063-0.3983-0.1213-0.7979-0.1807-1.1985c-0.2678-1.8145-0.5458-3.6897-1.1329-5.4536c0.7455-0.5868,0.936-1.9818,0.6349-2.8872
	c-0.2395-0.7222-0.74-1.0967-1.4075-1.041l-0.1804-1.0631c0.7358-0.8058,0.9917-2.6163,0.5225-3.7479
	c-0.2629-0.6334-0.7158-0.9792-1.3079-1.0139c-1.3098-16.1665-5.4402-32.1262-9.4353-47.5608
	c-1.6621-6.4253-3.3818-13.0693-4.8721-19.6309c-1.207-5.0142-2.1963-10.1641-3.1523-15.144
	c-0.5706-2.9758-1.1619-6.0525-1.7944-9.0747c0.792-0.9932,1.0818-2.9607,0.6187-4.229c-0.2615-0.7167-0.7378-1.1613-1.3745-1.2959
	c-0.0349-0.2936-0.0829-0.717-0.1313-1.146c-0.0496-0.4336-0.0978-0.8638-0.1345-1.168c0.692-0.9504,1.1135-2.9724,0.6121-4.3779
	c-0.2502-0.6989-0.702-1.1506-1.3059-1.3164l-0.277-2.3469c0.694-1.3359,1.0894-3.6199,0.5497-5.1414
	c-0.2488-0.7012-0.6714-1.1863-1.2511-1.4464c-0.0197-0.4633-0.0582-1.3297-0.0795-1.7811h0.0005l0.0117-0.3379
	c0.1464-4.1656,0.2983-8.4727-0.8115-12.5474c0-0.0007,0-0.0012,0-0.002c-0.0205-0.1553-0.0527-0.3877-0.085-0.6196
	c-0.0327-0.2297-0.0645-0.4585-0.085-0.6169c0-0.6052,0.0186-1.2305,0.0361-1.8347c0.0721-2.4385,0.1465-4.9591-0.9165-7.2122
	l-0.0024-0.0183c-0.0299-0.25-0.0863-0.7117-0.1074-0.9614l0.0127-0.4028c0.0879-2.7717,0.1792-5.6381-0.8228-8.2775
	c-0.0701-0.588-0.1907-1.7758-0.2495-2.3595c0.0146-0.4075,0.0342-0.8169,0.0527-1.2278c0.1298-2.814,0.2632-5.7234-0.7935-8.3933
	c-0.0197-0.2903-0.0525-0.7175-0.0864-1.1501c-0.0361-0.4585-0.072-0.9327-0.0928-1.2456
	c0.0857-4.8567-0.0458-11.1602-1.8303-16.8621c-0.1493-1.1188-0.283-2.2385-0.4119-3.3215l-0.0264-0.2144
	c3.0381-3.1284,5.5039-6.8628,7.3291-11.1006c1.7227-3.998,2.8398-8.3486,3.3193-12.9312l0.001-0.0127l-0.0049-0.0117
	c-2.4238-5.3579-5.4404-10.5044-8.3574-15.4814c-1.0088-1.7212-2.0527-3.501-3.0566-5.2651
	c-1.6523-2.4492-3.2295-5.0112-4.7549-7.4888c-2.7747-4.5068-5.644-9.1663-9.0713-13.3252c-0.651-2.7014-2.769-4.8275-5.4006-5.422
	c-6.3303-5.366-14.0258-9.4352-22.2607-11.7699c-2.5807-1.7079-5.7909-1.9446-8.8763-1.9448l-0.3527-0.0583
	c-2.1887-1.0148-4.5481-1.1521-6.5676-1.1521c-0.7451,0-1.498,0.021-2.2256,0.0415c-0.2341,0.0068-0.4673,0.0132-0.6995,0.019
	c-0.3652-0.0054-0.9124-0.0156-1.4568-0.0259c-0.506-0.0093-1.0045-0.0186-1.3625-0.0227c0.0079-0.3467-0.0938-0.6467-0.3181-0.8845
	c-0.333-0.3511-0.9102-0.5527-1.585-0.5527c-0.8367,0-1.6006,0.3024-1.969,0.769c-1.345-0.5393-2.7495-0.954-4.1072-1.3535
	c-1.2695-0.374-2.582-0.7603-3.8359-1.2471c-1.8887-0.6875-3.7178-1.603-5.4863-2.4888c-2.3926-1.1982-4.8672-2.437-7.5156-3.1221
	c-2.6084-0.7852-5.3252-1.3037-7.9521-1.8052c-3.7246-0.7109-7.5771-1.4463-11.1611-2.9551
	c-6.3174-1.5273-12.6113-3.5249-18.6982-5.457c-2.043-0.6484-4.1553-1.3188-6.2373-1.9619
	c-7.1523-2.2837-14.001-5.8779-20.3564-10.6836c-2.1914-1.6426-4.459-3.2725-6.6514-4.8486
	c-7.2949-5.2432-14.8379-10.6646-20.9219-17.5244c-5.3098-6.03-11.4153-13.2533-16.448-21.1123l0.0095-0.5957v-0.0127
	l-0.0059-0.0107c-0.2219-0.4077-0.7389-1.3605-0.9861-1.8344c-0.5314-3.5775-1.9468-6.9386-3.3157-10.1891
	c-0.6973-1.6553-1.4189-3.3672-2.0127-5.084c-0.1191-1.5796-0.0117-3.2236,0.0908-4.8135
	c0.2328-3.5751,0.4712-7.2708-1.8501-10.4465c0.9406-1.1445,1.3065-3.2571,0.3701-4.6421l0.7476-0.7859l0.0117-0.0127l0.0397-1.0292
	c0.3445-1.0406,0.8154-2.108,1.2709-3.1403c1.157-2.6262,2.3401-5.3401,1.804-8.1741c0.9587,1.1943,1.5919,2.6223,2.197,4.0105
	c0.8003,1.8374,1.6282,3.7367,3.2336,5.0718c1.7615,5.1715,5.3679,9.3052,8.8562,13.3032c0.9307,1.0669,1.8936,2.1699,2.8027,3.2725
	c0.3018,0.3906,0.6123,0.7759,0.9238,1.146l0.0732-0.0591c-0.291-0.3691-0.5928-0.7437-0.9238-1.1445
	c-3.5627-4.6078-5.9006-9.8625-8.1774-15.2966c-0.0956-1.2612-0.2467-2.5396-0.3929-3.7761
	c-0.2539-2.1362-0.5156-4.3457-0.4961-6.5366c-0.0176-0.2813-0.0244-0.5732-0.0313-0.856
	c-0.0272-1.1897-0.0566-2.4189-0.8704-3.3882c-0.2207-2.7146-0.658-5.8529-2.2097-8.5652c-0.2666-2.1324-0.6969-4.1682-1.2793-6.052
	l2.385,0.3079c1.1287,2.0576,2.6515,3.8805,4.1257,5.6428c1.7295,2.0688,3.5176,4.2075,4.6699,6.7329l0.0898-0.019l0.001-0.0835
	c0.0605-4.7466,0.123-9.6548-2.5488-13.7222c-0.9561-1.4814-1.9463-2.9736-2.9043-4.4165
	c-2.3779-3.5811-4.8369-7.2837-6.9541-11.1104l-0.0117-0.021l-0.0234-0.0029c-0.2456-0.03-0.7271-0.0776-0.9702-0.0986
	c-0.7733-1.2087-1.6506-2.3988-2.5005-3.5498c-2.2109-2.9937-4.4971-6.0898-5.21-9.8672
	c-1.0547-4.0234-2.6045-7.7222-4.6055-10.9922c-0.1279-0.2163-0.2598-0.4326-0.3926-0.6504
	c-0.9951-1.6372-2.0244-3.3286-1.8311-5.3071c1.7568,1.655,3.3103,3.5304,4.6335,5.1637c-0.4119,1.5011,0.1116,2.9708,1.5188,4.2523
	l0.5188,0.1641c0.8849,1.757,1.7854,3.4517,3.0691,4.873c0.8203,0.8911,1.6025,1.856,2.3594,2.7891
	c1.8311,2.2593,3.7256,4.5947,6.335,6.0994c0.0563,0.1908,0.13,0.4424,0.209,0.7141c0.1445,0.4932,0.3049,1.0427,0.408,1.3859
	l-0.0105,0.0135l0.0208,0.0208l0.0222,0.075l0.0228-0.0281c0.5024,0.5137,0.9445,0.9901,1.3463,1.4519
	c-0.8477,3.9946,0.9072,7.7417,2.6045,11.3657c0.1055,0.2251,0.21,0.4487,0.3145,0.6714c1.5625,3.332,4.2051,6.4365,7.8535,9.2271
	l0.1006,0.0776l-0.0264-0.1245c-0.4717-2.1938-1.2686-4.3252-2.04-6.3862c-0.9434-2.5254-1.9199-5.1362-2.2998-7.8745
	c-0.1816-0.8232-0.3057-1.707-0.4258-2.5615c-0.1824-1.2948-0.3718-2.6318-0.7632-3.7886l-0.0122-0.0425
	c-0.3418-1.2407-0.7129-2.4956-1.0713-3.709c-0.5548-1.8755-1.1257-3.814-1.6038-5.7388l0.0129,0.0054l-0.0371-0.0959
	l-0.0059-0.0227l-0.0037-0.0015l-0.2668-0.689c-0.541-1.3979-1.0996-2.8433-1.627-4.2622c0.3789-0.0923,1.0039-0.2334,1.4648-0.3379
	l0.3311-0.0752l-0.04-0.0571c-1.8125-2.6069-3.4111-5.4189-4.958-8.1377c-2.5771-4.5327-5.2422-9.2192-8.9668-13.0684
	l-0.0146-0.0161l-0.3289,0.03c-7.8335-9.3408-18.5282-15.6311-27.9583-20.5525l-0.0801-0.042l0.0117,0.0898
	c0.0303,0.2163,0.0801,0.6592,0.0996,0.8774l0.002,0.0239l0.0205,0.0122c6.5608,3.9905,14.8356,9.5764,20.7269,17.4204
	l-1.6063-0.1859c-2.5837-1.572-5.0656-3.3951-7.4663-5.1583c-3.5916-2.6378-7.3052-5.3657-11.4297-7.3032l-0.3934-0.4329
	c-0.7057-1.2109-1.3998-2.4463-2.0704-3.6414l-0.2695-0.479c-1.5361-1.8007-3.2866-3.1875-5.2018-4.124
	c-0.4357-0.9996-1.5345-1.4954-2.599-1.9736c-0.5598-0.252-1.1315-0.5165-1.5939-0.8455l0.0529-0.0232l-0.1346-0.0272
	l-0.0138-0.0099l-0.011,0.0049l-1.322-0.2673v-0.0007c-1.2021-0.0796-2.4014-0.1401-3.5654-0.1797
	c-1.7666-1.4907-3.8201-2.7908-6.1018-3.8669l0.1155-0.3762l-0.0557-0.0068c-0.3242-0.0405-0.8369-0.1079-1.3184-0.1714
	c-0.3386-0.0441-0.6575-0.0862-0.8984-0.1155c-1.9435-0.9851-4.0791-1.1082-6.1445-1.2273c-1.4619-0.084-2.9736-0.1714-4.4014-0.564
	c-1.2441-0.3613-2.6055-0.5293-4.2822-0.5293c-1.0205,0-2.0576,0.0625-3.0332,0.127l-0.1123,0.0073l0.3467,0.3076
	c-0.2487,0.0105-0.5697,0.0247-0.9053,0.04c-0.3682,0.0168-0.731,0.0332-0.9905,0.0441c-0.1819-1.1591-1.4146-1.5768-2.5232-1.5768
	c-0.9197,0-1.7964,0.2782-2.3015,0.7245c-1.77-0.4484-3.5713-0.875-5.3137-1.287c-1.1587-0.2744-2.3582-0.5579-3.5422-0.8464
	l0.0002-0.0007c-3.8184-1.3027-8.0391-1.9634-12.5459-1.9634c-4.2988,0-8.8584,0.5962-13.5518,1.7725l-0.5453,0.1389l-0.1246,0.009
	c-2.9675,0.2074-6.0354,0.4218-8.6952,1.8633l-0.2816,0.0781c-2.6892,0.3115-5.2849,0.7561-7.6902,1.1899l-0.0498,0.0088
	l0.1912,0.7302c-2.0376,0.3223-4.0237,0.915-5.7078,1.4602c0.0566-0.5186,0.1445-1.2734,0.2314-2.0186
	c0.0837-0.7217,0.1664-1.4343,0.2202-1.9153c0.5861-2.3547,1.6111-4.5945,2.603-6.7605c1.1229-2.4531,2.2814-4.9897,2.814-7.7103
	c0.4805,0.6497,1.0059,1.3053,1.6118,2.0023l0.0508,0.0586l0.0283-0.0723c0.3676-0.9519,0.7032-1.8138,1.0579-2.6875l0.0164,0.0361
	l0.0267-0.1437l0.0055-0.0131l-0.002-0.0044c0.2302-1.2258,0.5344-2.4602,0.8291-3.6543c0.5139-2.0815,1.0442-4.2343,1.1982-6.4175
	c1.0833-2.3746,1.8591-4.9351,2.6104-7.4111c0.1711-0.5652,0.3414-1.1294,0.5166-1.6936c0.384-0.5542,0.6692-1.2323,0.9453-1.8889
	c0.5869-1.3989,1.1934-2.8447,2.792-3.2104l-0.1172,2.6191l-0.002,0.0518l0.0518-0.0029c0.085-0.0054,0.2119-0.0161,0.335-0.0269
	c0.1094-0.0093,0.2148-0.0186,0.2852-0.0229l0.043-0.0029l0.001-0.0435c0.0029-0.293-0.0029-0.5972-0.0088-0.8911
	c-0.0293-1.4404-0.0586-2.9297,0.958-4.0693c1.8702-2.1935,1.4178-5.2247,1.0833-7.4446c2.3308-2.1807,2.9868-5.1841,3.6189-8.0891
	c0.2939-1.3491,0.5977-2.7441,1.0654-4.04l0.0039-0.0112l-0.001-0.0117c-0.2324-1.6226-0.9443-3.1216-1.6328-4.5708
	c-0.0879-0.1846-0.1748-0.3687-0.2617-0.5527l-0.0062-0.0133l-0.7306-1.5714c-0.2344-1.8381-0.7849-3.7722-1.6838-5.9108
	c1.4487-1.8378,0.5398-3.8114-0.344-5.7198c-0.333-0.7217-0.6484-1.4028-0.8467-2.0874c-0.5781-1.0293-0.6563-2.2852-0.7314-3.5
	c-0.1123-1.8149-0.2285-3.6919-2.0664-4.7324c-0.0146-0.0249-0.0352-0.0645-0.0459-0.0898l0.3115-2.2129
	c0.3838,0.1245,1.0488,0.332,2.0273,0.6328l0.1035,0.0317l-0.0479-0.0977c-0.9238-1.8682-1.8945-3.748-2.832-5.5659l-0.0615-0.1201
	l-0.281,0.6108c-0.8385-2.7734-2.4841-5.1711-4.0803-7.4897c-0.4209-0.6108-0.8555-1.2427-1.2676-1.8701
	c-0.3584-0.5239-0.7109-1.0674-1.0518-1.5928c-1.0978-1.6909-2.234-3.438-3.7341-4.8435l-0.092-0.4417l-0.8712-0.3419
	c0.3418-0.6036,0.2914-1.4242-0.1512-2.2137c-0.4805-0.8584-1.2822-1.4136-2.04-1.4136c-0.2217,0-0.4381,0.0492-0.645,0.1394
	c-1.7379-2.0889-4.0162-3.9943-6.7762-5.6639c-1.2181-1.0643-2.6744-1.8062-4.0685-2.4501
	c-0.3088-0.3549-0.7933-0.9133-1.2534-1.4434c-0.3438-0.3975-0.6738-0.7778-0.9043-1.0435c-0.042-0.1035-0.1143-0.2852-0.165-0.3862
	c-0.0098-0.6187-0.0459-1.8154-0.0664-2.46l-0.0039-0.1304l-0.0146-0.0132c-3.8894-3.5024-9.3145-5.4219-17.0703-6.0417
	c-0.3323-0.1265-0.9854-0.3706-1.335-0.4937c-3.8804-3.7817-8.9502-6.0284-13.9148-6.166l-0.5935-0.2234
	c-0.595-0.8351-1.408-1.4607-2.1958-2.0654c-0.1108-0.0852-0.2214-0.1704-0.3315-0.2555l0.0015-0.0106l-0.0295-0.011l-0.0574-0.0447
	l-0.0032,0.0215c-0.9766-0.3638-2.0046-0.7649-3.1392-1.2242l0.0007-0.0043l-0.0408-0.0117l-0.0481-0.0195l-0.0012,0.0063
	c-1.3127-0.3556-2.5981-0.7012-3.8914-1.0469l-0.0938-0.0249l0.0391,0.0889c0.4766,1.0942,0.9932,2.1992,1.4541,3.1826
	c-0.8926-0.2964-1.792-0.6172-2.6641-0.9272c-2.2661-0.8069-4.6084-1.6323-7.0106-2.1116l0.4286-0.0559v-0.0928
	c-1.6143-0.209-3.1924-0.396-4.7334-0.396c-2.8638,0-4.9985,0.6506-6.7179,2.0461c-0.6512,0.0627-1.3448,0.0935-2.12,0.0935
	c-1.0117,0-2.04-0.0522-3.0342-0.103c-0.9941-0.0503-2.0215-0.1025-3.0313-0.1025c-0.271,0-0.5352,0.004-0.7859,0.0112
	c-0.2019-0.0151-0.4038-0.0308-0.6057-0.0464c-1.1045-0.0859-2.2461-0.1753-3.3662-0.1753c-0.7191,0-1.3667,0.0365-1.9838,0.1113
	c-1.161-0.5745-2.4921-0.8428-4.1871-0.8428c-0.9307,0-1.8867,0.0781-2.8105,0.1533c-0.9111,0.0747-1.8525,0.1519-2.7559,0.1519
	c-0.0771,0-0.1553-0.001-0.2383-0.0015l-0.0557,0.0059c-4.6178,0.5227-10.3627,1.1746-12.8398,5.771
	c-3.4752,1.0477-6.7363,2.5845-9.1904,3.8076l-0.0205,0.0098l-0.0049,0.0215c-0.1035,0.438-0.3281,1.335-0.4551,1.8237
	c-0.9963,0.8054-1.9458,1.6592-2.8247,2.5371l-0.2716,0.1216c-0.8656-0.2007-1.4795-0.1084-1.8217,0.2773
	c-0.2777,0.313-0.3772,0.8269-0.3005,1.5208l-0.7927,0.1128c-0.1404-0.0282-0.2909-0.0437-0.4497-0.0437
	c-1.5216,0-3.5085,1.2487-3.6089,2.6594c-0.4841,0.2524-1.4327,0.7517-1.9182,1.0088l-0.0002-0.0002
	c-2.7451,1.2227-4.7998,3.4019-6.7866,5.5093c-0.9282,0.9854-1.8887,2.0039-2.9048,2.9087
	c-5.359,4.7234-9.7163,10.8615-12.9506,18.2427c-0.0697,0.105-0.1735,0.2578-0.2775,0.4111
	c-0.1049,0.155-0.2097,0.3101-0.2799,0.415c-2.6215,2.903-4.1261,6.5122-5.5809,10.0024c-0.6772,1.626-1.3779,3.3066-2.1831,4.895
	c-1.3125,3.0508-2.0176,6.3413-2.6997,9.5234c-0.2959,1.3804-0.6016,2.8076-0.9526,4.1938
	c-0.2339,0.8965-0.6816,1.7734-1.1147,2.6221c-0.8954,1.7542-1.8203,3.5677-0.897,5.6375c-0.0364,1.1365,0.0181,2.3295,0.167,3.6467
	c-3.3149,1.9219-6.0107,4.9307-7.5933,8.4761c-4.083,9.1318-5.2813,19.8208-3.373,30.0981l0.0007,0.0044h-0.2107l0.7681,2.1401
	c-0.5469,2.6655-0.0854,5.313,0.3608,7.874c0.4153,2.382,0.8448,4.8458,0.4617,7.3193c-0.1379,0.2963-0.3894,0.828-0.5266,1.1021
	l-0.0112,0.0225l0.2024,0.3542c-0.8901,2.2317-0.3191,4.5496,0.2351,6.7913l0.0183,0.075l-0.0125-0.0051l0.0345,0.0952
	l0.0055,0.0225l0.0017,0.0007c0.7522,2.1013,0.4402,4.342,0.1375,6.509l-0.0652,0.4666l-0.031,0.134
	c-0.5582,2.417-1.1354,4.9153-0.9202,7.4244c-0.7693,5.6028-1.1016,11.4156,1.6392,15.9808
	c-0.3611,2.7581-0.1003,5.5723,0.1526,8.2939c0.1504,1.6221,0.3062,3.2993,0.3286,4.9502c0.0854,0.978,0.0669,1.9897,0.0483,2.9683
	c-0.0332,1.7701-0.0669,3.6011,0.5117,5.3243c0.0002,0.2264,0.0049,0.5629,0.0103,0.8983c0.0044,0.3062,0.0088,0.6108,0.0098,0.8276
	c-0.7046-0.1411-1.4126-0.2881-2.0981-0.4302c-0.8481-0.1758-1.7246-0.3574-2.5903-0.5273
	c-2.3636-1.3038-5.1597-1.7686-7.4087-2.1416c-0.5107-0.0684-1.0425-0.1523-1.5562-0.2344c-1.3228-0.21-2.6909-0.4272-4.0176-0.4272
	c-1.9747,0-3.4883,0.4824-4.7642,1.5168c-4.0424,1.6643-5.2452,6.2769-5.5742,8.1829c-0.6597,3.561-1.8013,7.0503-2.9053,10.4243
	c-1.1206,3.4253-2.2798,6.9668-2.9351,10.5879c-0.3276,2.4502-1.7241,4.4478-3.0752,6.3789
	c-0.9165,1.3105-1.8638,2.665-2.4844,4.1675c-0.4341,2.0498-0.5854,4.1772-0.7319,6.2349
	c-0.0728,1.0171-0.1475,2.0688-0.2559,3.0977l-1.3125,0.3488c-0.6196-0.2133-1.2584-0.4857-1.9351-0.7745
	c-1.6118-0.688-3.2783-1.3994-4.9043-1.3994c-1.0479,0-1.9546,0.2959-2.772,0.9048v0.0002c-0.797,0.5194-1.5872,1.074-2.3516,1.6101
	c-0.7997,0.561-1.6268,1.1406-2.4624,1.6821c-0.5161-0.3918-1.3591-0.6357-2.2178-0.6357c-1.1099,0-2.3456,0.4121-2.5269,1.5564
	c-2.4742,0.0613-4.5028,0.4669-6.2059,1.2429c-0.6705-0.5425-1.3441-0.8193-2.0035-0.8193c-0.686,0-1.3762,0.3003-2.052,0.8879
	c-0.3497-0.1332-1.011-0.3727-1.3572-0.4915l-0.0005-0.0001c-1.2234-0.6573-2.626-0.951-4.5479-0.951
	c-0.7759,0-1.5757,0.0459-2.3486,0.0903c-0.7749,0.0444-1.5767,0.0903-2.3555,0.0903c-0.8511,0-1.5854-0.0562-2.2549-0.1719
	c-0.7285,0.0264-1.52,0.0396-2.4194,0.0396c-0.9351,0-1.8896-0.0137-2.813-0.0273c-0.9263-0.0132-1.8843-0.0273-2.8257-0.0273
	c-2.8197,0-6.1274,0.1147-9.2798,0.9658l0,0c-0.4341,0.0986-1.3005,0.2937-1.7623,0.397c-0.6674-0.4863-1.7867-0.8008-2.8636-0.8008
	c-1.4973,0-2.5525,0.5745-2.8374,1.5367c-6.2994,0.573-12.4001,2.826-17.1914,6.3507c-0.4579-0.2225-1.0692-0.3464-1.7285-0.3464
	c-1.4612,0-3.0562,0.6377-3.1465,2.0305c-8.1577,1.9963-18.7104,5.0496-28.0425,10.9875
	c-12.2837,6.7856-23.1216,15.4829-32.2168,25.855c-1.2456,1.8682-2.5469,3.7505-3.8052,5.5703
	c-2.501,3.6182-5.0874,7.3589-7.3789,11.1968c-0.7676,1.7837-1.5552,3.5952-2.3164,5.3467
	c-3.6548,8.4058-7.4336,17.0977-10.4058,25.9395c-0.1802,0.6509-0.3608,1.3018-0.542,1.9531
	c-2.5389,9.1333-5.1634,18.5771-6.3821,28.1307c-0.0446-0.0038-0.0894-0.0077-0.1325-0.0077c-0.6157,0-1.0918,0.4009-1.3062,1.1001
	c-0.2831,0.9232-0.059,2.2634,0.7186,2.8147c-0.0692,0.545-0.2014,1.5923-0.2721,2.1631c-0.6649,0.0461-1.1747,0.4683-1.4348,1.2029
	c-0.413,1.1648-0.1013,2.7817,0.6641,3.4873l-0.2212,0.7537l-0.001-0.0002c-1.6561,4.8049-1.856,10.217-1.9126,14.9138l-0.1186,1.02
	c-1.4079,4.0491-1.2021,8.3983-1.0025,12.6052l0.0009,0.0161c-3.0082,6.6162-6.8469,14.2144-12.5126,20.4253
	c-1.0493,1.7036-1.6816,3.6377-2.2925,5.5083c-0.644,1.9712-1.3101,4.0098-2.4668,5.79c-1.7192,2.563-2.4663,5.54-3.1885,8.4194
	c-0.5913,2.3564-1.2026,4.7935-2.3457,6.999c-0.1367,0.3438-0.3008,0.6904-0.4595,1.0259c-0.433,0.9153-0.8776,1.8625-0.8715,2.9148
	c-0.5952,0.2684-1.0449,0.8821-1.2652,1.7375c-0.3365,1.3054-0.0892,2.9353,0.5708,3.8293c-2.787,1.019-4.3265,3.802-5.242,5.8171
	c-1.3676,1.6543-1.1752,3.7756-0.9885,5.8281c0.0862,0.9459,0.1752,1.9243,0.1027,2.8258
	c-0.1693,0.4567-0.3546,0.9166-0.5339,1.3612c-0.2563,0.6343-0.521,1.2896-0.7441,1.9526l0,0
	c-1.3467,3.0426-1.0546,6.457-0.772,9.7588c0.0916,1.0754,0.187,2.1873,0.2194,3.2515c-0.3204,1.2926-0.8604,2.5547-1.3829,3.7749
	c-0.8975,2.0957-1.8252,4.2632-1.667,6.6509c0.1581,6.0706-0.6305,10.7325-2.4832,14.675
	c-3.1703,4.1138-1.3532,9.7369,0.0152,12.7275c0.0855,0.4406,0.1504,0.8997,0.2131,1.344c0.1577,1.1177,0.3208,2.2739,0.8301,3.313
	l0.0083,0.0122c1.0962,1.1274,2.521,1.8535,3.8984,2.5562c0.3931,0.2007,0.7993,0.4077,1.1899,0.6206
	c0.019,0.2397,0.0483,0.5825,0.0781,0.9321c0.033,0.3895,0.0662,0.782,0.0878,1.0586c-0.6519,0.1895-1.1295,0.7015-1.3774,1.4917
	c-0.4109,1.3105-0.1019,3.1367,0.6873,4.0886c-2.1,11.1606-4.7083,24.0901-9.1062,36.3372
	c-4.0637,14.6605-8.1953,30.29-10.1653,46.0327c-0.6384,0.0291-1.1384,0.418-1.4069,1.1104
	c-0.45,1.1605-0.1635,2.8757,0.5984,3.6229l-0.1914,1.2662c-0.652,0.0273-1.1409,0.3934-1.41,1.0698
	c-0.459,1.1526-0.1614,2.9026,0.6219,3.6941c-0.0613,0.5608-0.1833,1.592-0.2529,2.1479c-0.6324,0.0579-1.123,0.4664-1.3802,1.1643
	c-0.4244,1.1511-0.1423,2.7963,0.6002,3.5449l-0.1807,0.6289h-0.0001c-1.1343,2.4282-1.4756,5.1333-1.8057,7.7485
	c-0.0862,0.6841-0.176,1.3914-0.2777,2.0803c-1.0951,3.9552-2.3142,7.9485-3.4928,11.8103
	c-1.8882,6.1851-3.8408,12.5811-5.3374,18.9902c-0.5249,2.2539-1.0732,4.5469-1.6035,6.7642
	c-2.8271,11.8228-5.7493,24.0471-6.6034,36.3649c-0.5618,0.1688-0.9881,0.6027-1.2306,1.2625
	c-0.511,1.3901-0.1415,3.3835,0.5247,4.3882l-0.2122,1.3171c-0.616,0.1599-1.0806,0.6118-1.3404,1.3152
	c-0.5208,1.4095-0.1305,3.382,0.5615,4.3566c-0.0488,0.2192-0.1192,0.5513-0.1884,0.8773c-0.0576,0.2704-0.1133,0.5326-0.155,0.7271
	l-0.0002-0.0001c-1.1581,2.8506-1.0709,5.9944-0.8036,8.9676c-0.0145,0.1602-0.0344,0.3994-0.0543,0.6398
	c-0.0186,0.2247-0.0367,0.4435-0.0513,0.6043l-0.6806,0.0095l-0.0444,0.563c-0.2156,2.7107-0.4381,5.5136-0.1192,8.2809
	c-0.045,0.5267-0.1157,1.551-0.1577,2.1635l-0.0087,0.1266l-0.6295-0.0802l-0.0039,0.0493
	c-0.0259,0.3369-0.0527,0.6743-0.0796,1.0122c-0.2288,2.8694-0.4647,5.837-0.1606,8.7596
	c-0.0146,0.1254-0.0334,0.3083-0.0523,0.4948c-0.0201,0.1976-0.0404,0.3959-0.0564,0.5348
	c-1.3046,2.768-1.1031,5.8973-0.9075,8.9237c0.0229,0.3586,0.0463,0.7154,0.0663,1.0692c-0.0288,0.6449-0.0964,1.9183-0.1381,2.6088
	c-0.6563,0.207-1.1331,0.7488-1.3755,1.5773c-0.3964,1.3538-0.0675,3.2046,0.731,4.1444c-0.4655,2.2098-0.7964,4.4821-1.1158,6.6803
	c-0.4395,3.0278-0.8945,6.1587-1.709,9.1641c-1.0811,3.3911-2.6836,6.6235-4.2339,9.7495
	c-0.8438,1.7012-1.7158,3.4604-2.4946,5.2261l-0.0004,0.0016c-1.4515,3.3349-1.3972,7.5693,0.1476,11.6188
	c0.0291,0.212,0.0967,0.6384,0.1384,0.8715c-0.0161,2.2224,0.0098,4.4819,0.0352,6.6673c0.0361,3.1536,0.0737,6.4146-0.0146,9.6258
	c0,0.0001,0,0.0001,0,0.0002l-0.0083,0.1152c-0.0308,0.4313-0.0819,1.1387-0.1184,1.5386c-0.626,0.0257-1.0943,0.3811-1.3503,1.0415
	c-0.4512,1.1622-0.1223,2.9692,0.6747,3.7424c-0.0341,0.2618-0.0805,0.6381-0.1283,1.0208
	c-0.049,0.3953-0.0977,0.7873-0.1339,1.0724c-0.661-0.0278-1.1695,0.3486-1.4233,1.0756c-0.3122,0.8922-0.1534,2.2339,0.5713,2.8395
	c-0.8843,2.4576-1.5023,5.0361-2.0996,7.5302c-0.4395,1.8359-0.894,3.7349-1.4526,5.5762
	c-2.6177,10.4893-6.2207,20.2476-10.6582,31.9136c-0.415,1.0098-0.8979,2.0259-1.3647,3.0088
	c-1.2297,2.5901-2.4998,5.2682-2.7339,8.1987c-0.9899,0.049-1.4527,1.221-1.4614,2.3091c-0.0082,1.0541,0.4259,2.1955,1.3899,2.2604
	c0.1221,4.3727,2.2769,8.2325,4.3621,11.9627c3.5005,6.6982,7.8228,13.7939,13.6079,22.3398
	c1.6235,1.6699,2.8105,3.7373,3.9585,5.7373c1.5947,2.7783,3.2437,5.6514,6.0767,7.458c1.6641,1.2988,3.6929,1.8857,5.6392,2.3242
	c1.9661,3.0981,4.6575,7.3212,9.1356,7.5212l0.067,0.8313l0.0039,0.0439l0.0439-0.001c2.7709-0.0458,5.966-0.3223,8.6581-2.0133
	c0.5541-0.2054,1.1641-0.306,1.8643-0.306c0.6885,0,1.3965,0.0957,2.0806,0.1875c0.5593,0.0754,1.1368,0.152,1.7079,0.1784
	c0.0877,0.9444,1.2912,1.3782,2.3931,1.3782c1.084,0,2.2279-0.4038,2.3805-1.2993c3.7827-0.3483,7.2726-2.2174,10.1888-4.0024
	c2.2798-1.3896,4.8091-2.3545,7.2559-3.2861c1.2534-0.4785,2.5493-0.9727,3.7993-1.5186c0.4922,0.4785,0.9829,1.0039,1.4575,1.5127
	c1.7073,1.8281,3.4729,3.7163,5.9846,4.2767l-0.03,0.9626h0.0488c0.4824-0.0039,0.9712,0.0029,1.4614,0.0078
	c0.3921,0.0049,0.7856,0.0098,1.1792,0.0098c2.3159,0,4.2227-0.1807,6-1.0625l-0.0004-0.0013l0.0062-0.0026
	c1.6616-1.1641,3.0122-2.7607,3.9048-4.6182c0.5254-1.0488,0.7656-2.1777,0.7148-3.3496c0.1016-4.1738-0.2275-8.3975-0.5454-12.4824
	c-0.2471-3.167-0.502-6.4414-0.5542-9.6689l-0.002-0.0127c-0.3647-1.2441-0.4287-2.5947-0.4907-3.9004
	c-0.0897-1.8961-0.1829-3.8553-1.21-5.4824c-0.2003-0.9841-0.4399-1.9709-0.6713-2.9258c-0.1716-0.7077-0.349-1.4386-0.5064-2.1533
	c-0.019-1.6226-0.0307-3.2712-0.0419-4.8672c-0.0479-6.7578-0.0967-13.7461-0.729-20.5967
	c-0.0884-0.4355-0.0806-0.939-0.0732-1.4258c0.017-1.1213,0.0317-2.2793-1.0491-2.8913c-0.3408-2.4241-0.8513-4.8564-1.3455-7.2088
	c-0.5078-2.4175-1.0327-4.9165-1.3711-7.3965c-0.377-12.6133-5.04-25.0884-13.1309-35.1279
	c-2.1027-2.5724-3.7002-5.4442-5.4523-8.9675c1.0347-1.3491,0.9784-3.6251-0.1218-4.9102c1.4406-4.0048,2.6985-8.1474,3.915-12.1541
	c1.5342-5.0513,3.1201-10.2744,5.0864-15.2715c0.7773-2.001,1.5732-4.0327,2.3423-5.998c3.1411-8.021,6.3892-16.3154,9.209-24.6133
	c7.5249-21.2354,14.334-38.5107,21.4282-54.3657c6.3872-13.7031,10.8906-28.3926,15.2456-42.5981
	c0.7109-2.3184,1.4458-4.7158,2.1772-7.0708c0.9756-3.8701,2.1294-7.7783,3.2451-11.5576
	c2.3345-7.9063,4.7466-16.0814,5.6791-24.4152c0.0171,0.0006,0.0343,0.0016,0.0514,0.0016c0.6143,0,1.0815-0.3804,1.3159-1.0713
	c0.3477-1.0256,0.063-2.3759-0.6078-2.9148c0.0696-0.5156,0.2013-1.5052,0.2725-2.0476c0.6171-0.1033,1.0765-0.5248,1.3256-1.23
	c0.4177-1.1804,0.1373-2.9119-0.5974-3.7271l0.2815-1.3779c0.6061-0.243,1.0466-0.7316,1.3062-1.4575
	c0.5464-1.5269,0.1466-3.7767-0.5377-4.9988l0.2218-0.8733c1.3287-2.1942,1.1587-4.8375,0.9932-7.394
	c-0.0718-1.1145-0.1458-2.2677-0.0879-3.3433c0.9327-6.0276,2.5942-12.532,5.2275-20.4692
	c1.7773-5.2495,4.4248-10.1992,6.9854-14.9868c1.7974-3.3608,3.6563-6.8354,5.1992-10.3867
	c1.1875,0.1758,2.3379,0.3535,3.4199,0.5293c0.0361,0.2256,0.0869,0.5376,0.1387,0.8574c0.0627,0.3855,0.1257,0.7762,0.1702,1.0524
	c-0.5513,0.1639-0.9526,0.5603-1.1882,1.1869c-0.5042,1.3412-0.1041,3.4082,0.5715,4.4407
	c-0.483,2.2041-0.0891,4.4717,0.2927,6.6653c0.134,0.769,0.2723,1.5638,0.3689,2.3376c-0.1892,2.749,0.0033,5.5349,0.1892,8.2292
	c0.2549,3.6827,0.5181,7.4905-0.1975,11.2294c-1.5911,4.9615-2.4604,10.1744-3.3005,15.2159
	c-0.2369,1.4202-0.4818,2.889-0.7395,4.334c-1.4553,4.3582-1.1456,9.0107-0.8455,13.5103c0.1991,2.9878,0.4048,6.0769,0.095,9.0604
	c-0.3539,1.5607-0.7375,3.1478-1.1086,4.6827c-1.2631,5.2251-2.5679,10.6281-2.9674,16.0776
	c-0.0441-0.0039-0.0885-0.0078-0.1307-0.0078c-0.6289,0-1.1138,0.4141-1.3301,1.1357c-0.2681,0.8936-0.0695,2.1736,0.709,2.7162
	c-0.0343,0.1058-0.0754,0.2316-0.1221,0.3727c-0.1135,0.3461-0.2539,0.7729-0.3345,1.0397l-0.0005-0.0001
	c-1.2529,2.2134-1.0278,4.7441-0.8101,7.1919c0.1025,1.1563,0.209,2.3521,0.1543,3.4883l-0.002,0.0435l0.8059,0.1011
	c0.848,5.4946-0.5564,10.8308-1.9163,15.9912c-1.0269,3.8979-2.0881,7.9279-2.1753,12.0142
	c-0.551,0.1572-0.9547,0.5383-1.1958,1.1406c-0.5239,1.3077-0.1409,3.4392,0.5309,4.5488
	c-0.0907,0.4535-0.2719,1.3121-0.3737,1.7749l0,0c-1.0835,2.4922-0.9648,5.2461-0.8506,7.9097
	c0.0127,0.297,0.0254,0.5931,0.0365,0.8881c-0.0189,0.3365-0.0453,0.8315-0.0717,1.3321c-0.0276,0.525-0.0553,1.053-0.0757,1.4203
	c-1.9744,0.9633-1.5154,4.5256-0.7551,6.5685l-0.2756,0.8814l-0.001-0.0001c-1.0588,5.9883-1.2979,12.374-0.7107,18.9794
	c-0.2125,1.744-0.3564,3.5272-0.4958,5.252c-0.064,0.7896-0.1299,1.6055-0.2017,2.4087c-0.4258,0.2412-0.8667,0.4795-1.2935,0.7104
	c-1.7188,0.9292-3.4966,1.8896-4.8623,3.3535c-0.7524,1.2305-1.3618,2.5752-1.9517,3.875c-1.0015,2.209-2.0371,4.4927-3.8027,6.2773
	c-3.958,4.3516-7.5537,9.5464-10.6855,15.4375c-2.8157,4.6565-5.5833,9.6714-5.8242,15.2761
	c-0.6147,0.051-1.0764,0.423-1.332,1.0881c-0.4316,1.1234-0.1543,2.8185,0.5776,3.5916
	c-3.8011,4.9534-6.0118,10.9549-7.7871,16.1999c-0.0796,0.4165-0.1748,0.833-0.2754,1.2734
	c-0.4258,1.8647-0.8662,3.7925-0.0415,5.5649l0.0166,0.0361l0.0381-0.0103c0.2451-0.0669,0.6177-0.1646,0.9873-0.2612
	c0.3475-0.0913,0.6898-0.1809,0.9249-0.2443c0.7725,0.514,2.0507,0.8732,3.1224,0.8732c1.2983,0,2.1565-0.4909,2.4275-1.3785
	c4.394-2.0911,6.7063-6.423,8.9412-10.6132c1.0854-2.0347,2.2089-4.136,3.5499-5.933c1.8837,2.9809,1.8051,6.4509,1.7245,9.8085
	c-0.0728,3.0278-0.1479,6.1586,1.1956,8.9677l0.0979,0.5292c-0.021,3.2125-0.0908,6.4776-0.1587,9.6354
	c-0.0908,4.2539-0.1846,8.6528-0.1616,12.9912l0.0005,0.0518l0.8503-0.0912c0.1304,0.9467,0.6189,1.7836,1.095,2.5922
	c0.1997,0.3394,0.4058,0.6895,0.5815,1.042c-0.6089,2.3599-1.4042,4.8453-2.4281,7.5937l-0.0963-0.0336l-0.0503-0.0171
	l-0.0112,0.0518c-0.3774,1.7227-0.708,3.4834-1.0107,5.3828l-0.0024,0.0171l0.0088,0.0146c2.1011,3.4629,5.936,4.6948,9.6455,5.8857
	l0.479,0.1543c0.2662,4.0908-0.0839,8.2173-0.4224,12.2085c-0.2263,2.665-0.4606,5.4211-0.5085,8.1399
	c-0.23,1.0385-0.522,2.0853-0.8049,3.0974c-0.5259,1.8834-1.0681,3.8312-1.2412,5.83c-0.543,0.2374-0.9458,0.6803-1.1938,1.3209
	c-0.6229,1.6082-0.1147,4.0429,0.4473,5.2714c-0.1096,0.4192-0.3218,1.2286-0.4331,1.6492l-0.001-0.0002
	c-1.3363,3.1862-1.3174,7.0116,0.0471,9.7483c0.2712,3.0978,0.9729,6.4115,2.2092,10.4262c-0.038,2.115-0.0103,4.2667,0.0171,6.3475
	c0.0298,2.2998,0.0605,4.6768,0.0029,7.0156c-0.0068,0.4805-0.022,0.9727-0.0366,1.4482c-0.0737,2.3726-0.1494,4.8261,0.7578,7.1035
	l0.0034,0.0283c0.03,0.2516,0.0852,0.7169,0.1057,0.9619h-0.0002c0.0859,3.0986,0.3979,6.2354,0.7002,9.2695
	c0.3297,3.3164,0.6704,6.7446,0.7188,10.1429c-3.0544,1.7454-4.145,4.8291-5.1987,7.8121
	c-0.5952,1.6836-1.2104,3.4258-2.1729,4.9189l-0.001,0.0023c-2.6992,3.9808-2.3339,8.875-1.9805,13.6071
	c0.1255,1.679,0.2551,3.4153,0.2339,5.0426l-0.0667,0.3538c-1.4338,1.5547-1.2429,3.8711-1.0569,6.1124
	c0.1035,1.25,0.2109,2.542,0.0239,3.6592l0.0002,0.0001c-0.0001,0.0002-0.0002,0.0006-0.0002,0.0009l-0.0586,0.4048
	c-1.3049,3.4363-1.2407,7.1554-1.1787,10.7515c0.0137,0.7852,0.0278,1.5967,0.0269,2.3906c-0.397-0.2236-1.04-0.5918-1.5171-0.8652
	l-0.3815-0.2195c-0.2927-0.5255-0.8553-1.5319-1.1439-2.0383l-0.0127-0.0225l-0.0259-0.001
	c-1.0229-0.0361-1.9019,0.3291-2.3276,0.9707c-0.3628,0.5479-0.3833,1.2422-0.0596,2.0088c0.6521,4.358,1.7814,8.7882,3.356,13.1669
	l-0.0405,0.4503l0.0322,0.0127c0.3306,0.1357,0.8262,0.3428,1.3218,0.5508c0.4795,0.2012,0.958,0.4023,1.2871,0.5371
	c-0.0356,0.6553-0.0801,1.3232-0.123,1.9697c-0.1885,2.8262-0.3838,5.748,0.0972,8.6152c0.0757,0.2168,0.1279,0.4834,0.1831,0.7646
	c0.1763,0.8984,0.3765,1.917,1.4312,1.917c0.054,0,0.1101-0.004,0.1649-0.0093c0.267,0.5984,0.8291,0.9983,1.4274,1.4194
	c0.8215,0.5773,1.6703,1.1753,1.7803,2.3513c-1.4563,5.0587,0.1052,10.1006,1.6157,14.9768
	c0.4478,1.4467,0.9102,2.9423,1.2806,4.4041c-0.7504,0.7634-1.0231,2.5328-0.5585,3.6692c0.2739,0.6693,0.7581,1.0247,1.3979,1.0344
	l0.0752,0.6355l0,0c-0.0215,1.2695-0.0986,2.5859-0.1729,3.8584c-0.2397,4.0925-0.4875,8.3246,0.9744,12.1957
	c0.439,2.3386,0.9038,4.7179,1.3542,7.0182c0.4121,2.1074,0.8389,4.2881,1.2446,6.4365c0.6528,3.9297,2.2842,7.6123,3.8618,11.1748
	c0.6484,1.4639,1.3193,2.9775,1.9116,4.4863c1.3418,3.0498,2.3398,6.2861,3.3052,9.415c1.0059,3.2598,2.0454,6.6309,3.4736,9.792
	c1.3726,3.7783,3.5508,7.1973,5.6577,10.5029c1.3828,2.1709,2.813,4.415,4.0088,6.749c0.2412,0.3301,0.4717,0.7031,0.7158,1.0986
	c0.8569,1.3877,1.8281,2.9609,3.583,2.9609c0.0198,0,0.0361-0.0006,0.0515-0.0015c0.2073,0.3458,0.593,1.014,0.8069,1.3872
	l0.02,0.0352l0.8275-0.3351c0.5751,2.8622,2.0961,5.4037,3.5695,7.8615c0.2236,0.3732,0.4471,0.7452,0.6667,1.1183
	c0.1553,4.0034,0.092,8.0776,0.0305,12.0175c-0.0571,3.6543-0.1162,7.4336-0.0005,11.1504l0.002,0.0557l0.6853-0.1313
	c0.2905,2.5602,0.8794,5.1115,1.4504,7.5786c0.2017,0.873,0.4106,1.7764,0.6025,2.6611c0.5464,4.9072,4.0879,8.376,7.5127,11.7305
	c0.5771,0.5654,1.1733,1.1494,1.7349,1.7217c-0.4312,4.0713-0.332,8.2168-0.2358,12.2256c0.0703,2.9316,0.1431,5.9639,0.0078,8.9482
	c0.0308,1.2627-0.4385,2.4385-0.8921,3.5771c-0.4224,1.0592-0.8556,2.1543-0.8933,3.3276c-0.7515,0.205-1.2169,0.5374-1.3767,0.9897
	c-0.1821,0.5156,0.0278,1.1908,0.6199,2.0048c-0.0959,0.5475-0.2949,1.6176-0.4111,2.2175c-1.01,0.3154-1.4399,1.7483-1.4089,2.9603
	c0.0266,1.0391,0.4182,2.3314,1.4241,2.5951c0.0305,3.3824,1.26,6.5673,2.45,9.6471c0.3374,0.8729,0.6853,1.7755,1.0027,2.6727
	c-1.0828,1.2435-1.1013,3.4794-0.0414,4.9191c-1.7955,3.1212-3.0294,6.5381-4.2211,9.8418
	c-1.0269,2.8477-2.0889,5.792-3.5078,8.5371c-1.644,3.6709-0.9038,7.4854-0.1875,11.1748c0.2217,1.1406,0.4507,2.3203,0.6025,3.4717
	c-1.2568,4.7432,0.5869,9.1143,2.3701,13.3418c0.7813,1.8516,1.5889,3.7666,2.1245,5.6904
	c2.6387,5.9404,1.1543,12.3389-0.2813,18.5273l-0.1455,0.6288c-0.6194,0.1676-1.0828,0.6381-1.3379,1.3693
	c-0.4554,1.3062-0.1803,3.2692,0.5986,4.3042l-0.2209,1.3215c-0.6711,0.0448-1.1882,0.4631-1.4553,1.1897
	c-0.4296,1.1702-0.1218,2.8297,0.656,3.5732l-0.1912,1.246c-0.6316,0.0309-1.114,0.3907-1.3936,1.0519
	c-0.4702,1.1138-0.2347,2.844,0.4911,3.6555l-0.2474,0.6577l-0.7227,0.7317l-0.0112,0.0117l-0.002,0.0156
	c-0.0381,0.3232-0.0791,0.6514-0.1206,0.9834c-0.415,3.3226-0.884,7.087,0.8708,10.0452l0.1987,2.1466
	c-0.322,3.4304-0.552,7.3878,0.7916,10.9625c0.3258,2.0863,0.8746,4.1735,1.4054,6.1914c0.9036,3.4342,1.8369,6.986,1.6936,10.6422
	c-0.6021,0.1102-1.0454,0.4746-1.3123,1.0902c-0.5574,1.2858-0.186,3.4164,0.5186,4.4811c-0.0549,0.1951-0.1321,0.4761-0.21,0.7611
	c-0.0774,0.2842-0.1547,0.5665-0.2109,0.7705c-1.0165,1.7379-0.9897,3.7634-0.9639,5.7217
	c0.0044,0.3086,0.0083,0.6162,0.0083,0.9229c0.2495,4.9736,0.2261,10.042,0.2031,14.9434
	c-0.0112,2.3711-0.0225,4.8232-0.0029,7.2344l0.0005,0.0488l0.8165-0.0397c0.071,0.4624,0.1412,0.924,0.2118,1.3873
	c0.5718,3.7614,1.1638,7.6508,2.158,11.3933c-0.7301,0.8344-0.9974,2.6193-0.5583,3.7659c0.2498,0.6525,0.6987,1.0331,1.2959,1.1116
	c0.2594,2.8237,0.9857,5.6326,1.6895,8.3494c0.4504,1.7395,0.9163,3.5382,1.256,5.3275c0.047,2.6132,0.3102,6.4785,2.0419,9.8689
	l0.2534,1.3749c0.868,4.7083,1.7661,9.5758,3.0417,14.2739c-0.6815,0.9415-1.0835,2.8806-0.5969,4.2954
	c0.2491,0.7249,0.708,1.2008,1.3242,1.3848l0.2047,1.3491c-0.8529,1.8085-1.326,5.5247,0.7443,6.576
	c0.0347,0.2996,0.0883,0.7362,0.1418,1.1774c0.0538,0.4392,0.1072,0.8743,0.1447,1.1847c-0.6844,1.0532-1.0662,3.1492-0.5206,4.494
	c0.2583,0.6364,0.6915,1.0271,1.283,1.1704c0.1219,3.4904,0.7639,6.9854,1.3855,10.3667c0.2139,1.1624,0.4351,2.3645,0.6323,3.5522
	c0.1279,3.6,0.4736,7.8051,2.0618,11.7001l0.0959,0.525c0.5579,3.0559,1.1353,6.2152,2.0875,9.2505
	c-0.7281,0.7302-1.012,2.3717-0.6041,3.5396c0.2573,0.7377,0.7565,1.1794,1.4033,1.2588c0.0289,0.2542,0.0735,0.6151,0.1201,0.9863
	c0.0502,0.4045,0.1007,0.8116,0.1345,1.1016c-0.7644,0.7583-1.0779,2.4491-0.6692,3.6396c0.1713,0.4999,0.5476,1.1062,1.3445,1.2117
	c0.0364,0.297,0.0923,0.7345,0.1482,1.1692c0.0509,0.4006,0.1013,0.793,0.1373,1.0759c-0.6749,1.287-1.0714,3.5234-0.5675,5.053
	c0.2415,0.7317,0.6605,1.2471,1.2429,1.5345l0.3022,1.4036c-0.656,0.9286-1.0317,2.929-0.5227,4.3441
	c0.2527,0.7034,0.6982,1.1577,1.2861,1.3248c-0.0076,3.2909,0.408,6.4386,1.2366,9.3608c-0.651,0.9803-1.0317,2.9463-0.5613,4.3378
	c0.2362,0.6996,0.6672,1.1736,1.2444,1.3795c0.0103,0.4152,0.0294,1.2094,0.04,1.6312h-0.0007
	c0.0054,4.0566,0.3013,8.1826,0.5874,12.1729c0.2388,3.3311,0.4854,6.7754,0.563,10.168l0.0005,0.0205l0.8336,0.7234
	c0.5436,2.4083,1.2889,4.8027,2.0096,7.1194c0.7917,2.5457,1.6111,5.1781,2.1663,7.8416c0.0442,1.3453,0.2012,2.7089,0.3528,4.0286
	c0.2661,2.3096,0.541,4.6973,0.2168,7.0615c-0.083,0.9932-0.1782,2.0137-0.27,3c-0.6854,7.3486-1.3937,14.9481,1.573,21.8691
	c0.0001,0.0004,0.0002,0.0007,0.0002,0.001l0.2089,0.5601c-0.7378,0.5225-0.9067,1.7328-0.6381,2.6206
	c0.2354,0.7783,0.7549,1.2246,1.4243,1.2246c0.0256,0,0.0518-0.0017,0.0779-0.0031l0.1514,1.1537
	c-0.7361,0.5326-0.8999,1.7999-0.6252,2.6843c0.2305,0.7412,0.7271,1.166,1.3628,1.166c0.0283,0,0.0579-0.0021,0.0869-0.0037
	c-0.0229,2.3444,0.4795,4.6731,0.9678,6.9265c0.1494,0.6885,0.3042,1.4004,0.4414,2.1055
	c1.0791,4.5303,2.0293,9.1719,2.9482,13.6611c1.1743,5.7345,2.3887,11.6632,3.8857,17.4314c-0.75,0.5345-0.96,1.8512-0.6807,2.7649
	c0.228,0.7461,0.7334,1.1738,1.3872,1.1738c0.0276,0,0.0564-0.0018,0.085-0.0032l0.152,1.1162
	c-0.7445,0.7097-1.0226,2.3535-0.5924,3.5403c0.2637,0.7297,0.7634,1.1505,1.4048,1.2018
	c-0.0408,2.7627,0.3489,5.1206,1.1921,7.2095c-0.724,0.5355-0.913,1.8392-0.6296,2.7421c0.2212,0.7031,0.6978,1.1064,1.3071,1.1064
	c0.0332,0,0.0677-0.0029,0.1021-0.0052c-0.0741,5.5713,5.9797,6.8207,10.4063,7.7318c0.292,0.0596,0.5771,0.1191,0.8535,0.1768
	c0.0474,0.7119,0.0698,1.4434,0.0913,2.1504c0.0637,2.0679,0.1299,4.2054,0.8226,6.2256c-0.6543,0.9604-1.0239,2.9559-0.5087,4.3135
	c0.2571,0.6779,0.7118,1.1146,1.3115,1.274c-0.1492,1.3982,0.2166,2.8102,0.5728,4.1761c0.5386,2.0625,1.0469,4.0098-0.0474,5.9512
	c-1.4331,3.0225-0.7441,6.2715-0.0781,9.4131c0.1938,0.916,0.3945,1.8623,0.5342,2.7744c0.7734,5.2305,1.7065,10.7715,3.833,15.9609
	c0.6113,1.5244,1.1694,3.1182,1.709,4.6592c1.5596,4.4541,3.1719,9.0596,6.3086,12.7529l0.02,0.0234l0.0039-0.0011
	c0.4319,0.5908,1.4131,0.9445,2.647,0.9445c1.3008,0,2.8081-0.4258,3.2722-1.3741c0.283-0.0439,0.6951-0.1066,1.1111-0.1698
	c0.4229-0.0642,0.843-0.1279,1.1299-0.1737c0.5073,0.4712,1.4509,0.7762,2.4189,0.7762c1.053,0,2.2102-0.3926,2.3411-1.4827
	c0.2815-0.036,0.6909-0.0884,1.1028-0.1404c0.3977-0.0498,0.7892-0.0994,1.0576-0.1335c0.5092,0.4653,1.4417,0.7673,2.3911,0.7673
	c1.0895,0,2.2866-0.4142,2.4189-1.5652l1.231-0.1827c0.5367,0.4242,1.4807,0.6981,2.4185,0.6981
	c1.3417,0,2.2407-0.5201,2.4243-1.3923l1.1484,0.2214l0.0161,0.0029l0.9197-0.4943c0.4207,0.3879,1.2019,0.6388,2.0129,0.6388
	c0.9436,0,1.9502-0.3578,1.9912-1.3502l0.0835-0.0111c0.5591-0.0745,1.4888-0.1976,1.9856-0.2729
	c0.5215,0.3944,1.434,0.6489,2.3367,0.6489c1.3464,0,2.2494-0.5135,2.4355-1.3735l1.1587,0.2319l0.0132,0.0029l1.1251-0.4287
	c0.8722,0.3881,2.0392,0.6211,3.1278,0.6211c1.0142,0,2.8118-0.2108,3.5195-1.5962c0.5675-0.0701,1.6606-0.205,2.2397-0.2764
	c0.4875,0.5236,1.4248,0.8618,2.4028,0.8618c1.0352,0,2.2886-0.4163,2.4578-1.5773c0.2809-0.037,0.6923-0.0894,1.1028-0.1425
	c0.3799-0.0493,0.7509-0.0973,1.0177-0.1322c0.5039,0.5065,1.4623,0.8344,2.4574,0.8344c1.0945,0,2.3025-0.4103,2.4524-1.5499
	c0.3313-0.0428,0.8396-0.104,1.3157-0.161c0.3153-0.0385,0.6118-0.074,0.8423-0.1036c0.4841,0.5031,1.4221,0.8292,2.4048,0.8292
	c1.0437,0,2.2831-0.4127,2.3889-1.5647c0.5439-0.0701,1.592-0.1936,2.1469-0.2551c0.5057,0.4915,1.5065,0.8228,2.5048,0.8228
	c1.0774,0,2.243-0.4019,2.3291-1.5182c0.2847-0.0406,0.689-0.095,1.0986-0.1508c0.4089-0.0558,0.8135-0.1112,1.1072-0.1537
	c0.5176,0.4868,1.4744,0.8011,2.4509,0.8011c1.0444,0,2.2234-0.3854,2.4392-1.4562c0.2747-0.0397,0.6703-0.0933,1.0706-0.1464
	c0.406-0.0538,0.8099-0.1074,1.0847-0.1482c0.6453,0.4746,1.7383,0.782,2.7952,0.782c1.4927,0,2.5483-0.5753,2.8375-1.5385
	l1.3273-0.2238c0.6655,0.4662,1.7725,0.7671,2.8328,0.7671c1.5023,0,2.5626-0.5775,2.8501-1.5441l1.3369-0.2125
	c0.665,0.4645,1.7794,0.7644,2.8501,0.7644c1.519,0,2.5697-0.5835,2.824-1.561l1.2739-0.2134
	c0.5005,0.4576,1.4329,0.7529,2.3894,0.7529c1.1105,0,2.3232-0.41,2.4404-1.549l1.1628-0.1436
	c0.5402,0.402,1.4871,0.6622,2.4255,0.6622c1.3888,0,2.3096-0.5232,2.479-1.3983l0.0552-0.007
	c0.8057-0.1018,2.2988-0.29,3.0676-0.3959c0.6663,0.5201,1.3446,0.7865,2.0183,0.7865c0.6665,0,1.3436-0.2609,2.0132-0.7703
	c6.6982,4.4987,14.4977,7.0704,22.0415,9.5564c0.9697,0.3193,1.9385,0.6387,2.9053,0.9619
	c1.5605,0.4434,3.1475,0.9365,4.6816,1.4121c4.665,1.4484,9.4883,2.9447,14.4292,3.3337c-0.0229,0.3524,0.0725,0.6611,0.3003,0.9114
	c0.3447,0.3809,0.9805,0.6074,1.6992,0.6074c0.8071,0,1.5291-0.2767,1.8997-0.7218l1.123,0.1732
	c0.0864,1.1571,1.2942,1.574,2.4089,1.574c0.9663,0,1.9072-0.3049,2.4126-0.775l1.3232,0.2302
	c0.2485,0.9834,1.2837,1.5712,2.7817,1.5712c1.0859,0,2.2073-0.3225,2.8708-0.8215c0.1948,0.0416,0.4703,0.0964,0.7542,0.1526
	c0.3276,0.0652,0.663,0.1326,0.8914,0.1813c1.6305,0.6958,3.4717,1.0345,5.6311,1.0345c1.0189,0,2.1082-0.076,3.3267-0.2299
	c0.4977,0.0497,1.4692,0.1472,1.9636,0.1973c0.3788,0.2432,1.1316,0.7318,1.53,0.9935l0.0107,0.0068l0.0127,0.001
	c0.5732,0.0264,1.1621,0.0391,1.8008,0.0391c1.5801,0,3.1875-0.082,4.7422-0.1611s3.1631-0.1611,4.7441-0.1611
	c1.3545,0,2.5586,0.0596,3.6875,0.1836c0.1406-0.0068,0.29-0.0107,0.4453-0.0107c0.5752,0,1.1826,0.0479,1.7715,0.0938
	c0.6035,0.0469,1.2285,0.0947,1.835,0.0947c1.5515,0,2.6388-0.3318,3.5269-1.0728c0.3335-0.0883,0.9885-0.2672,1.3445-0.3698
	c0.3408,0.4736,1.0881,0.7814,1.9246,0.7814c0.707,0,1.3232-0.2256,1.6484-0.6025c0.2158-0.2501,0.2953-0.5603,0.2555-0.9137
	c0.0286,0.0002,0.0571,0.0006,0.0853,0.0006c2.2881,0,4.5361-0.9541,6.168-2.6191c1.4548-1.4827,2.2399-3.3785,2.2266-5.3512
	l0.1006,0.069l0.0234-0.7197c0.1416-4.2744,0.2881-8.6943-2.3545-12.2969c-0.7002-2.6904-0.6973-5.5537-0.6953-8.3223
	c0.002-2.2373,0.0039-4.5518-0.3623-6.7754l-0.0677,0.005c-0.1053-0.9714-0.2455-2.3081-0.3203-3.0464
	c0.7103-1.1599,1.1605-3.3893,0.6498-4.9869c-0.2443-0.7635-0.6742-1.2799-1.2728-1.5419
	c-0.5492-8.3438-4.7218-16.1133-9.1497-23.2614l0.4752-0.7866l0.0127-0.0205l-0.4395-1.0459l-0.8854-0.1487
	c-0.8097-3.334-2.5192-6.4132-4.1732-9.3914c-0.998-1.7959-2.0293-3.6543-2.8516-5.5459c-2.5801-5.9326-5.0166-12.04-7.3721-17.9473
	c-0.9395-2.3555-1.9111-4.792-2.8799-7.1865c-0.75-1.3721-0.6611-2.9512,0.2705-4.8271l0.0107-0.0225l-0.0117-0.0215
	c-2.5703-4.4658-4.8984-8.9482-6.918-13.3252c5.5671-9.8478,9.5337-20.0859,11.791-30.4353
	c1.1445-2.6088,1.3545-5.4933,1.5566-8.2825c0.1289-1.7745,0.2627-3.6086,0.6353-5.3519
	c2.2954-6.2609,3.2419-11.4902,2.9812-16.4532c1.2297-2.5253,1.0454-5.3524,0.866-8.0854c-0.0156-0.2389-0.031-0.4768-0.0457-0.7129
	l0.0669-0.7867c0.5973-0.1453,1.0493-0.5693,1.3059-1.2347c0.5259-1.3644,0.1487-3.365-0.5203-4.3263
	c0.416-1.1908,0.4495-2.3834,0.0979-3.5433c0.3492-3.0044,0.2175-6.038,0.0897-8.9712c0.965-2.2946,1.8339-4.6676,2.6735-6.9619
	c1.123-3.0713,2.2852-6.2461,3.6934-9.2686c1.3408-3.4004,2.3916-6.9629,3.4082-10.4063c0.7412-2.5101,1.5068-5.1051,2.3804-7.6202
	c1.2671-1.7107,1.1448-3.8365,1.0259-5.8925c-0.0469-0.8096-0.0947-1.6465-0.0518-2.4336
	c-0.2061-2.1494-0.2041-4.3545-0.2031-6.4873c0.002-3.249,0.0039-6.6094-0.7275-9.8389h-0.0002
	c-0.0302-0.1406-0.073-0.351-0.116-0.5615c-0.0408-0.203-0.0812-0.4038-0.113-0.5477c0.2268-3.1487,0.1013-6.224-0.0693-9.0781
	l0.1947-2.6046c0.579-0.0825,1.0135-0.4658,1.2552-1.1211c0.4243-1.1526,0.1534-2.9077-0.5664-3.7053
	c0.0569-0.2103,0.1421-0.525,0.2236-0.8279l0.1689-0.626l0,0c1.1182-3.0107,0.9551-6.2705,0.7979-9.4229
	c-0.0117-0.2384-0.0234-0.4767-0.035-0.7131c0.0194-0.3351,0.0477-0.8396,0.0751-1.3445c0.0265-0.4884,0.0529-0.9749,0.0732-1.3165
	c0.5997-0.2079,1.0432-0.7267,1.2793-1.5106c0.4059-1.3448,0.1136-3.2787-0.6356-4.2396c0.0695-0.5634,0.2023-1.6378,0.2733-2.2123
	c0.6592-0.0793,1.1602-0.5359,1.4082-1.2991c0.3871-1.1902,0.0642-2.8186-0.6895-3.5114c0.082-0.3958,0.2458-1.1495,0.3337-1.5326
	h0.0002c1.3853-4.3912,1.9985-9.2703,1.7726-14.1117l0.0477-0.5973c0.0496-0.6211,0.1116-1.3916,0.1492-1.8534l0.6018-0.0743
	l0.041-0.0059v-0.041c0.0215-4.8252,0.3711-9.7217,0.71-14.457c0.4559-6.3783,0.9265-12.9723,0.5999-19.4706
	c0.0621-0.657,0.1714-1.9366,0.2195-2.5421c1.1008-2.4921,0.9882-5.2351,0.8799-7.8877c-0.0137-0.3354-0.0283-0.67-0.0391-1.0035
	c0.0095-0.3761,0.0375-1.1176,0.0562-1.5303c0.0315,0.002,0.063,0.0045,0.0942,0.0045c0.5859,0,1.0264-0.3633,1.2393-1.0234
	c0.2952-0.9144,0.0756-2.3273-0.6544-2.8843c0.6683-1.9846,1.1146-4.2095,1.3628-6.8036c1.1061-3.5007,1.0231-7.2169,0.944-10.8121
	c-0.0205-0.923-0.042-1.8781-0.042-2.8081c0.0283-0.4279,0.0986-1.2379,0.1406-1.7212l0.006-0.0702
	c1.0275-0.3026,1.4063-1.6371,1.4149-2.7013c0.0106-1.2017-0.4271-2.5382-1.4253-2.8506c-0.0579-0.4248-0.1638-1.2679-0.2161-1.7292
	c0.2904-2.9108,0.156-5.866,0.0251-8.7229c-0.1123-2.4458-0.2275-4.9746-0.0752-7.4625c0-0.0001,0-0.0002,0-0.0004l0.0466-0.5759
	c0.8181-0.0413,1.2246-0.6122,1.4172-1.094c0.4518-1.1299,0.1938-2.8241-0.5382-3.583l0.1898-0.5823l0.0007,0.0002
	c1.5139-3.5414,2.1887-7.8828,2.004-12.9044c0.8291-3.7725,1.5502-7.5375,2.3783-12.032c0.0801-0.2051,0.1964-0.5105,0.313-0.8165
	c0.1182-0.3066,0.2354-0.6143,0.3154-0.8193l0.0029-0.0166c0.0039-2.4482,0.043-4.9443,0.0801-7.3574
	c0.1309-8.4614,0.2664-17.2097-1.04-25.7123c0-0.0002,0-0.0004,0-0.0006c0-0.3096,0.002-0.7695,0.0049-1.2295
	c0.0029-0.4568,0.0049-0.9125,0.0049-1.2238c1.2458-3.0072,1.1042-6.3031,0.8303-9.6986c0.0225-0.1545,0.053-0.3906,0.0837-0.6206
	c0.0237-0.1825,0.0464-0.3597,0.0647-0.4924c0.0771-0.1973,0.1965-0.4972,0.3152-0.7937c0.1113-0.2764,0.2207-0.5508,0.293-0.7334
	l0.0029-0.0176c-0.0049-2.667,0.1309-5.3701,0.2617-7.9844c0.1367-2.7433,0.2791-5.5792,0.2588-8.3706
	c0.1979-0.9351,0.4036-1.8848,0.6035-2.8032c0.6396-2.9404,1.3008-5.9795,1.7656-9.0049c0.3115-2.0527,0.9883-4.0527,1.6426-5.9863
	c0.7661-2.2664,1.5562-4.6095,1.7618-7.0514c0.6573-0.0391,1.1646-0.4561,1.4276-1.1869c0.4222-1.1757,0.1123-2.8596-0.6492-3.5581
	l0.0671-0.4673l0.002-0.0068l-0.0006-0.0022c0.473-3.0348,0.8008-6.2163-0.7621-8.8511l-0.0488-0.3091
	c0.0176-2.5856-0.0441-5.3109-0.2001-8.8367c0.9899-5.202-0.2455-10.3677-1.7297-15.178c-0.152-2.339,0.0138-4.7166,0.1749-7.0164
	c0.1973-2.8232,0.4004-5.7432,0.0146-8.6025h-0.0002c-0.0273-0.421-0.072-1.0715-0.115-1.7021
	c-0.0347-0.5051-0.0691-0.9923-0.0927-1.3453c0.5865-0.0647,1.0321-0.441,1.2841-1.1019c0.4315-1.132,0.1819-2.8312-0.5198-3.593
	l0.4067-1.2106c1.02-0.3921,1.4083-1.8745,1.3357-3.0978c-0.0627-1.0549-0.4839-2.2582-1.4694-2.5159l-0.0033-0.1804
	c-0.0388-2.1389-0.0764-4.1605-0.0952-6.2311c0.6111-0.0757,1.0703-0.4641,1.3257-1.1361c0.4351-1.1479,0.165-2.9056-0.5627-3.7106
	c0.0898-0.3989,0.2617-1.1499,0.3523-1.5503l0.0005,0.0001c0.1094-0.2402,0.2207-0.4795,0.333-0.7197
	c0.5911-1.2732,1.197-2.589,1.614-3.9503c0.8188,3.9502,1.686,7.9579,2.5276,11.8361c2.4087,11.114,4.8993,22.6058,6.4951,34.0664
	c-0.1517,2.8129,0.2649,5.65,0.6689,8.3945l0.0615,0.4189c0.8242,7.1719,1.3496,14.4893,1.8574,21.5654
	c0.3613,5.0303,0.7354,10.2324,1.2129,15.3428c0.1475,1.9404,0.1846,3.9326,0.2207,5.8594
	c0.0703,3.6947,0.1416,7.5143,0.9883,11.1827c0,0.0002,0,0.0006,0,0.0009l0.0029,0.0146c0.073,0.5184,0.2078,1.4814,0.288,1.9899
	c-0.4071,2.3779-0.2496,4.8081-0.0966,7.1586c0.1133,1.749,0.2314,3.5576,0.1162,5.3369c-0.0342,0.5381-0.0713,1.0762-0.1084,1.6152
	c-0.2244,3.2212-0.4553,6.5514,0.0679,9.8156c-0.1555,1.0793-0.239,2.2244-0.2491,3.4034
	c-0.4772,0.9989-0.7299,2.0811-0.7504,3.2195c-0.0381,4.4834-0.0313,9.0459-0.0254,13.458
	c0.0098,7.3867,0.0195,15.0254-0.1738,22.54c0.8496,4.75,0.8955,9.6348,0.9404,14.3584c0.0166,1.8281,0.0352,3.7178,0.0986,5.5752
	c0.0273,0.6025,0.0205,1.2314,0.0137,1.8389c-0.0215,1.8848-0.042,3.8325,0.9069,5.5505l0.1591,2.2773
	c-0.3176,2.3483-0.1938,4.7469-0.0737,7.0667c0.0723,1.3984,0.1465,2.8438,0.124,4.2646c0.002,0.4707-0.0039,0.9512-0.0098,1.417
	c-0.0264,2.2852-0.0542,4.6482,0.7502,6.8596c0.01,1.415,0.0907,2.8627,0.2395,4.304c-0.5167,5.2679-0.2417,10.6517,0.0239,15.8579
	l0.0361,0.7051c0.1133,1.9531,0.0547,3.9482-0.001,5.8789c-0.0977,3.3621-0.199,6.8391,0.6018,10.2041
	c-0.0288,1.4233,0.0647,2.9202,0.2791,4.4501c-0.2803,3.4333-0.085,6.7748,0.5811,9.9327l0.0908,0.002l0.1329-0.5188
	c0.8088,9.9894,2.619,20.0157,4.3739,29.7151c0.6924,3.8291,1.4082,7.7891,2.0527,11.6904
	c3.1016,18.5,7.9141,36.9404,12.5693,54.7734c1.1826,4.5313,2.4063,9.2168,3.5811,13.8271
	c2.3008,12.2715,5.3936,24.5791,8.3838,36.4805c2.1946,8.7306,4.4631,17.7574,6.4036,26.7076
	c-0.2753,1.3046-0.9133,2.6117-1.4768,3.764c-0.1719,0.3522-0.3335,0.6849-0.4841,1.011c-0.7878-0.118-1.3545,0.0504-1.6897,0.5076
	c-0.8525,1.167,0.0107,3.8838,0.4258,5.1895l0.006,0.0172c0.1161,3.6316,0.202,7.5205,0.0497,11.3597
	c0.1729,1.3691-0.8672,2.082-1.8721,2.7715c-0.4189,0.2871-0.8517,0.5844-1.1868,0.9232c-3.291,1.8737-5.9563,4.0608-7.9187,6.4977
	c-1.2966,1.4082-1.4669,3.4954-0.4539,5.4564l-0.0579,0.0436l0.0854,0.0139l0.0151,0.0281l0.0288-0.0211
	c1.2556,0.2113,2.2784,0.3102,3.2163,0.3102c1.5608,0,2.8915-0.2792,4.0681-0.8521l0.009-0.0034
	c0.7539-0.2891,1.5137-0.6045,2.249-0.9102c0.7451-0.3096,1.5146-0.6289,2.2822-0.9229
	c-0.5039,6.7061-0.6631,12.8184-0.4844,18.6816c0.1387,3.0684-0.8486,5.9785-1.8037,8.7939
	c-0.7676,2.2637-1.5625,4.6055-1.7764,7.0293c-0.1846,1.6641-0.6641,3.3105-1.127,4.9023
	c-0.1621,0.5557-0.3291,1.1309-0.4814,1.7002l-0.0293,0.1074l0.0967-0.0547c1.4141-0.792,1.9658-2.291,2.499-3.7402
	c0.2131-0.5781,0.4342-1.1735,0.7043-1.703l0.8118,0.255c-1.6165,10.1711-5.1997,20.3135-10.3687,29.3347
	c-0.5068,0.9531-1.0186,1.9268-1.5127,2.8672c-3.1846,6.0605-6.4766,12.3271-10.9131,17.7061
	c-3.418,4.2939-6.3369,8.79-8.6758,13.3623c-2.5045,4.8969-4.3535,9.9077-5.4976,14.902c-1.7466,1.4076-1.3628,3.7698-0.9897,6.0551
	c0.1676,1.0272,0.3263,1.9968,0.293,2.8627c-0.649,1.7164-0.6748,3.6368-0.0742,5.5514c0.5469,1.7412,1.5693,3.4004,2.9541,4.7949
	c4.6116,5.814,12.2557,9.4984,20.9854,10.1147c0.2813,0.9171,1.3538,1.4644,2.8828,1.4644c1.0831,0,2.2057-0.2899,2.875-0.738
	c0.2048,0.0498,0.502,0.1246,0.8027,0.2009c0.3037,0.0762,0.606,0.1528,0.811,0.2028c1.0645,1.083,2.5559,1.0952,3.9985,1.1049
	c0.4688,0.0029,0.9541,0.0068,1.4082,0.0488h0.0029h0.0029c0.4287-0.0176,0.873-0.0254,1.3027-0.0332
	c2.0922-0.037,4.2551-0.0769,6.106-1.1676c0.1445-0.0214,0.3617-0.0465,0.5767-0.0726c0.1992-0.0239,0.3943-0.0469,0.5316-0.0662
	c1.0756,0.085,2.3475,0.1726,3.6315,0.1726c2.4736,0,4.4473-0.3228,6.2104-1.0144c8.5332-0.7614,16.4722-4.7513,23.1099-8.554
	c1.1865-0.6217,2.064-1.6183,2.9246-2.6769l0.009,0.0812c0.1848,1.6924,0.3789,3.4425,1.1262,5.0243
	c-0.6284,1.7811-2.3751,7.7587,0.8767,11.4072l-0.0752,0.004l0.1395,0.0759l0.0089,0.01l0.0111-0.0005
	c0.8834,0.4783,1.8884,0.6919,3.2555,0.6919c0.5625,0,1.1406-0.0352,1.7002-0.0684c0.5576-0.0332,1.1338-0.0684,1.6934-0.0684
	c0.2715,0,0.5186,0.0078,0.7578,0.0244c1.1592,0.0352,2.3857,0.0518,3.749,0.0518c1.959,0,3.9512-0.0352,5.8779-0.0703
	c1.9258-0.0342,3.918-0.0693,5.876-0.0693c2.918,0,5.3213,0.0791,7.5723,0.248c0.29-0.0254,0.6113-0.0371,0.9824-0.0371
	c0.3818,0,0.7793,0.0127,1.1631,0.0254c0.3916,0.0117,0.7969,0.0254,1.1934,0.0254c1.4174,0,2.8904-0.1476,4.0747-1.2047
	c1.7732-0.0863,3.5415-0.098,4.8843-0.098c0.6963,0,1.3936,0.0039,2.0898,0.0068c0.6973,0.0039,1.3945,0.0068,2.0918,0.0068
	c2.0399,0,4.446-0.0264,6.835-0.2249c0.335,0.0497,0.8352,0.1227,1.335,0.1946c0.5029,0.0723,1.0049,0.1445,1.3398,0.1943
	l0.0049,0.001h0.0049c8.1836-0.4932,16.9893-0.9658,25.9385-1.0898l0.04-0.001l0.0049-0.0391
	c0.3271-2.209-0.0332-4.3965-0.3809-6.5127c-0.292-1.7715-0.5928-3.6025-0.4883-5.4336c0.0605-2.8721-0.6348-5.6748-1.3066-8.3857
	c-0.54-2.1777-1.0986-4.4307-1.2637-6.708l-0.0039-0.0498l-0.6075,0.0714c-0.8344-3.5168-2.4817-6.8202-4.077-10.0148
	l-0.2383-0.4775c-1.9863-3.2822-3.3857-6.9082-4.7393-10.4141c-0.7021-1.8193-1.4277-3.7002-2.2285-5.5127
	c-2.2422-4.6709-3.1318-9.8281-3.9922-14.8154c-0.4729-2.7432-0.9626-5.5797-1.673-8.3066
	c-0.0004-1.7557-0.3478-3.4844-0.6844-5.1553c-0.2715-1.3486-0.5518-2.7422-0.6455-4.1328
	c-0.0156-1.2803,0.0742-2.5801,0.1611-3.8369c0.1296-1.8678,0.2631-3.799,0.0493-5.6904l0.0682-0.5459h0.0006
	c0.9619-7.2383,1.4268-13.6055,1.4199-19.4639c2.8611,0.2632,5.0264,0.2626,7.0681,0.0159l0.0325,0.0105l0.0166-0.042
	c0.2305-0.5996,0.6904-1.79,0.9209-2.3799l0.0068-0.0176l-0.0078-0.0186c-1.127-2.4766-3.5234-3.7422-5.8408-4.9668
	c-0.4741-0.25-0.9646-0.5098-1.427-0.7722c-0.4058-7.142-0.387-14.9863,0.0605-24.684c0.8352-2.0154,0.9436-4.0551,0.2961-5.5975
	c-0.4785-1.1416-1.3408-1.9697-2.5645-2.4639l-0.0244-0.0098l-0.7576,0.5555c0.3289-5.0847,1.7433-10.0574,3.114-14.868
	c0.4941-1.7324,1.0049-3.5244,1.4551-5.29c1.7598-5.7051,3.3545-11.5586,4.8955-17.2188c1.0693-3.9238,2.1738-7.9805,3.3252-11.9551
	c1.6035-7.3809,3.9014-14.709,6.123-21.7959c0.8809-2.8086,1.792-5.7129,2.6465-8.5801
	c7.54-24.0449,14.1318-48.5742,19.5908-72.9053c0.5107-2.7842,1.1465-5.6025,1.7607-8.3281
	c1.2706-5.6359,2.5833-11.4642,2.8772-17.3348c0.7957-0.1075,1.1777-0.7283,1.3542-1.2394
	c0.4106-1.1901,0.1207-2.8652-0.6172-3.6084c0.0441-0.2017,0.1104-0.4873,0.1768-0.7773c0.0699-0.2998,0.1384-0.5985,0.1853-0.8135
	h0.0002c0.9004-2.3447,1.0127-4.8457,1.0537-7.417c0-2.7588,0.29-5.541,0.5713-8.2305c0.2344-2.2402,0.4756-4.5566,0.5488-6.8477
	c0.0586-1.3672,0.2412-2.7598,0.418-4.1064c0.3678-2.7961,0.7469-5.6879,0.033-8.5087c0.1382-1.5194,0.2524-3.1606,0.3586-5.1661
	l0,0c1.2108-7.4314,1.1191-15.0833,1.0313-22.4844c-0.0498-4.1533-0.1006-8.4482,0.0791-12.6563
	c0.0098-4.783-0.047-9.4634-0.8408-14.1517c0.0322-5.7114-0.1396-11.5146-0.3057-17.1276
	c-0.0886-3.0092-0.1775-6.1119-0.2371-9.1848l0.073-0.0007c0.5553-4.9891,0.2931-9.1471-0.8-12.7122
	c-0.0321-0.2549-0.0808-0.6272-0.1306-1.0105c-0.0593-0.4594-0.1206-0.9338-0.1587-1.2445
	c0.4686-2.8336,0.3293-5.7295,0.1938-8.5289c-0.126-2.627-0.2568-5.3438,0.1152-8.0117c-0.1807-3.1631,0.1309-6.3496,0.4316-9.4307
	c0.283-2.8909,0.5745-5.881,0.459-8.8403c0.3496-2.5369,0.6807-5.1198,1.002-7.6177c1.2012-9.3623,2.4443-19.043,4.9063-28.3467
	c4.3984-17.168,10.2031-34.2236,15.8164-50.7178c2.9756-8.7422,6.0527-17.7813,8.8828-26.7295
	c12.0659-36.63,22.502-76.3337,31.903-121.3792c1.2738-0.0615,2.6174-0.0925,3.9935-0.0925c5.0078,0,10.0918,0.4043,15.0078,0.7949
	c2.0984,0.1669,4.2681,0.3394,6.4026,0.478c2.0242,0.6327,4.262,0.9155,7.2546,0.9155c1.2666,0,2.5605-0.0498,3.8125-0.0967
	c1.2451-0.0479,2.5322-0.0967,3.7832-0.0967c0.5527,0,1.0586,0.0098,1.5459,0.0283l0.0518,0.002l-0.0503-0.9445
	c3.2507-0.1981,6.8391-0.6837,8.4331-3.8427l0.0068-0.0146l-0.0029-0.0156c-1.1465-6.2021-2.4785-12.4639-3.7676-18.5205
	c-0.3016-1.4164-0.6023-2.8318-0.902-4.2501c-0.5936-6.4137-1.3512-11.7126-3.1212-16.7227c0-0.0006-0.0002-0.0012-0.0002-0.0018
	l-0.1918-0.631c0.7687-0.5297,0.9637-1.8026,0.6986-2.6971c-0.2356-0.792-0.7913-1.1981-1.5023-1.1029l-0.2006-1.2098
	c0.7791-0.7087,1.0958-2.395,0.6628-3.5603c-0.2686-0.7197-0.7837-1.1212-1.4502-1.1447l-0.1931-1.3176
	c0.6965-0.9557,1.0988-2.9208,0.5867-4.3473c-0.2563-0.7142-0.7185-1.174-1.3335-1.3397l-0.2235-1.3452
	c0.7579-1.0468,1.0138-3.001,0.557-4.2799c-0.2595-0.7256-0.7251-1.1943-1.345-1.3636l-0.2307-1.2346
	c0.7269-0.8075,0.9954-2.5168,0.5718-3.6791c-0.2466-0.6783-0.6926-1.0779-1.2878-1.1692
	c-0.0349-0.2898-0.0837-0.7097-0.1321-1.1345c-0.0485-0.4259-0.0966-0.8477-0.1343-1.1475
	c0.7073-1.0593,1.0812-3.2036,0.5229-4.5088c-0.2587-0.6071-0.6859-0.9666-1.2639-1.0775
	c-0.0682-3.8042-0.787-7.5983-1.4832-11.2672c-0.1658-0.8723-0.3363-1.775-0.4961-2.663c-0.0635-0.8542-0.1113-1.7406-0.1582-2.5978
	c-0.1934-3.5488-0.3926-7.2186-1.6934-10.4426c-0.0498-0.2023-0.1215-0.5142-0.1924-0.8192
	c-0.0565-0.246-0.1116-0.4836-0.1541-0.6599c1.0181-1.9807,1.0875-5.6432-0.8945-6.7035c-0.0349-0.278-0.0833-0.6817-0.1321-1.0888
	c-0.0483-0.4083-0.097-0.8129-0.1329-1.0973c0.7939-0.7164,1.1198-2.3661,0.6945-3.5511c-0.2632-0.7329-0.7798-1.149-1.4526-1.1851
	l-0.2125-1.2576c0.7465-0.7863,1.035-2.5514,0.6036-3.7233c-0.2531-0.6885-0.7104-1.0834-1.3193-1.1564
	c-0.0654-0.5244-0.1868-1.4913-0.2598-2.0711l-0.0159-0.1202c0.696-0.9709,1.1023-2.9423,0.5989-4.3515
	c-0.2454-0.6872-0.6895-1.1346-1.2827-1.3025c-0.0834-0.616-0.2253-1.7322-0.2959-2.3156c0.6835-0.9617,1.0811-2.9803,0.562-4.3643
	c-0.2581-0.6889-0.718-1.1292-1.3276-1.2824l-0.2334-1.3847c0.6819-0.9423,1.0769-2.8824,0.5786-4.2919
	c-0.2566-0.7256-0.7231-1.1973-1.3467-1.3722l-0.231-1.2631c0.7632-0.7785,1.0469-2.5161,0.5933-3.6675
	c-0.2656-0.6735-0.7412-1.0417-1.3723-1.076l-0.1914-1.2371c0.7263-0.8,0.9834-2.5485,0.5364-3.6888
	c-0.2642-0.6714-0.7285-1.0516-1.3413-1.1119c-0.1174-3.553-0.7565-7.1071-1.3755-10.5443
	c-0.1921-1.0686-0.391-2.1732-0.5713-3.2619c-0.0371-0.5919-0.0723-1.1857-0.1084-1.7811
	c-0.2986-4.9906-0.6072-10.1512-1.9122-15.0095c-0.0099-0.3072-0.0282-0.7717-0.0468-1.2318
	c-0.0156-0.4136-0.0322-0.8228-0.042-1.1099c5.1611-3.5508,8.2373-8.4121,8.667-13.6938c2.3711-1.1924,4.3154-3.1943,5.623-5.791
	c1.1956-2.3738,1.8159-5.1137,1.7979-7.93c0.0176,0.0006,0.0354,0.0018,0.0527,0.0018c0.5811,0,1.0303-0.3579,1.2656-1.0073
	c0.3518-0.9737,0.113-2.2793-0.5062-2.8297l0.5131-0.8901l0.0078-0.0151l-0.2173-1.1963c0.5154-0.2756,0.9033-0.7933,1.1177-1.5068
	c0.4282-1.4236,0.1038-3.3024-0.4587-4.3096c0.0505-0.1959,0.1216-0.4775,0.1941-0.7676c0.0845-0.3352,0.1705-0.6774,0.2291-0.901
	c1.2213-2.2175,1.0089-4.7279,0.8041-7.1556c-0.0447-0.5297-0.0911-1.0772-0.1206-1.6061c0.1626-0.5618,0.347-1.1255,0.5259-1.6702
	c0.2446-0.7484,0.4971-1.5217,0.6951-2.3027c0.9025-0.3676,1.4905-1.5931,1.4993-3.1357c0.0068-1.2992-0.4526-2.7953-1.4919-3.2302
	l-0.4663-1.3752c0.9822-2.2711,1.0022-4.9462,0.0526-6.8305c2.7931-5.5036,3.4924-11.9556,1.9675-18.1801
	c0.7706-0.9594,1.0615-2.8224,0.6451-4.1702c-0.25-0.8116-0.7227-1.3421-1.3625-1.5424l-0.233-1.3387
	c0.7172-0.9713,1.1482-3.0088,0.621-4.4089c-0.2555-0.6765-0.7146-1.1032-1.3247-1.2438l-0.0781-1.7546l0.0005-0.0001l0.0234-0.6084
	c0.1182-3.0526,0.2397-6.2089-0.9052-9.0848c-0.5868-7.3055-5.155-13.1476-9.5734-18.798c-0.4902-0.627-0.998-1.2759-1.4834-1.9072
	c-2.6074-3.8042-5.707-7.6665-9.7539-12.1548c-3.2393-3.6211-6.2656-7.5176-9.1924-11.2856
	c-2.0455-2.6334-4.1602-5.3563-6.3312-7.964c0.5502-1.8614,1.1406-4.5532,0.0181-6.5737c0.0951-0.432,0.2651-1.1888,0.3634-1.5873
	l0.0005,0.0001c1.1558-2.8047,1.0344-5.8518,0.7932-8.9884c0.0295-0.4008,0.0669-1.1517,0.0886-1.5859
	c0.7771-0.1358,1.1526-0.7573,1.3262-1.2645c0.4092-1.1964,0.1366-2.8508-0.5928-3.6324c0.0408-0.2649,0.0959-0.6508,0.1523-1.04
	c0.0562-0.381,0.1106-0.7563,0.1504-1.0306c0.6006-0.1017,1.0488-0.5129,1.293-1.1998c0.4218-1.1857,0.1426-2.9321-0.5953-3.7581
	c0.0323-0.2463,0.0797-0.5989,0.1285-0.9636c0.0573-0.4237,0.1157-0.8571,0.1541-1.1583c0.8052-0.0978,1.1838-0.7108,1.3567-1.2177
	c0.4045-1.1925,0.0825-2.8682-0.6868-3.6104c0.614-2.3984,1.0244-4.8409,1.3146-6.7062c1.4562-3.246,1.8264-6.7421,2.1307-10.6467
	c1.2783-6.2496,2.7983-12.559,4.2688-18.6608c2.671-11.0874,5.4304-22.551,6.8444-34.085l0.5677,0.8525l0.0088-0.1392
	c0.1211-1.9844,0.3652-3.9956,0.6016-5.9409c0.4089-3.3641,0.8314-6.8433,0.6292-10.2988c0.0137-0.1279,0.038-0.3173,0.0632-0.5093
	c0.0247-0.1941,0.049-0.3882,0.0647-0.5295c0.6714-1.1926,0.7323-2.5472,0.7908-3.8572c0.063-1.4138,0.1344-2.873,0.9852-4.1001
	c1.8248,7.6248,4.1993,15.2429,6.4972,22.6118c3.3998,10.9014,6.9155,22.1738,8.7147,33.6838
	c-0.1505,2.4291,0.1761,4.864,0.4923,7.2185c0.2256,1.6831,0.46,3.4233,0.5176,5.1533c0.0449,0.4214,0.0654,0.8618,0.0859,1.2881
	c0.0642,1.3276,0.1302,2.6998,0.884,3.8694c0.0088,0.3533,0.0164,0.7065,0.0242,1.0598c0.0371,1.6792,0.0752,3.4155,0.2156,5.1205
	c-0.6637,4.3654-0.415,8.8263,0.7209,12.9023c0,0.0004,0,0.0007,0,0.0011c0.666,5.1289,1.8242,10.4038,3.4414,15.6777
	c2.1025,6.8921,3.9756,13.9766,5.7881,20.8276c2.8867,10.9121,5.8711,22.1958,9.8525,32.9844
	c6.4678,18.0371,13.7979,38.4805,22.3809,57.7832c2.4023,5.4971,4.9063,11.0615,7.3271,16.4434
	c7.1328,15.855,14.5088,32.2495,20.2432,48.9961c3.123,7.4785,4.9854,15.4907,6.7861,23.2388
	c0.1414,0.6087,0.2838,1.2171,0.428,1.8328c-0.7053,0.8411-0.9314,2.5684-0.4827,3.717c0.2606,0.6653,0.7168,1.0556,1.3171,1.1392
	c0.9186,7.7459-2.2617,14.7009-5.3376,21.4263c-1.6533,3.6143-3.3623,7.3506-4.4229,11.1748
	c-0.4854,1.7031-1.1475,3.3936-1.7881,5.0273c-1.0859,2.7704-2.2078,5.6352-2.5095,8.6759
	c-0.5845,0.2503-1.0079,0.7283-1.2561,1.4257c-0.5378,1.5125-0.1338,3.7648,0.5701,5.0796
	c-0.084,0.4047-0.2111,1.0237-0.3328,1.6177c-0.0945,0.4633-0.1855,0.9073-0.2517,1.2305l-0.0002-0.0001
	c-1.1084,2.9717-0.8662,6.1436-0.6318,9.21c0.167,2.1846,0.3398,4.4443,0.0283,6.6299l0,0
	c-0.2682,1.1082-0.5198,2.2444-0.7637,3.3438c-0.5713,2.5791-1.1621,5.2461-2.0234,7.7861
	c-1.5967,4.2217-2.6289,8.623-3.0664,13.083c-0.4463,4.5459-0.2646,9.0527,0.54,13.3975c-0.252,0.2432-0.5049,0.4863-0.7578,0.7295
	c-0.7139,0.6836-1.4521,1.3916-2.1455,2.1143l-0.0391,0.041l0.0479,0.0313c0.3066,0.1943,0.6084,0.3994,0.9287,0.6182
	c0.7786,0.53,1.5844,1.0779,2.4602,1.4603l-0.0002,0.0006c3.1425,2.1565,7.0754,2.6158,11.1677,2.9274
	c0.0005,0.0001,0.0007,0.0002,0.0012,0.0004l0.7521,0.1036l-0.1251,0.649c-0.3999,0.0695-0.9802,0.1738-1.5625,0.2795
	c-0.5845,0.1051-1.1665,0.2096-1.5756,0.2827c-0.5477-0.4485-1.5071-0.7397-2.4567-0.7397c-1.0675,0-2.2512,0.3949-2.4208,1.4904
	c-0.1342-0.0065-0.2697-0.0099-0.4044-0.0099c-3.5488,0-6.917,2.0645-8.3848,5.1436c-0.2412,0.8076-0.3779,1.6543-0.5098,2.4736
	c-0.1982,1.2236-0.4023,2.4883-0.957,3.6396l-0.0244,0.0508l0.0537,0.0146c2.2822,0.623,4.2783,0.9268,6.1025,0.9268
	c1.2673,0,2.4836-0.1504,3.6147-0.4441c0.8069,0.0243,1.634,0.0604,2.4341,0.0955c1.4648,0.0645,2.9785,0.1309,4.4697,0.1309
	c3.2305,0,5.6748-0.3145,7.9248-1.0186v-0.0001c0.1309-0.0195,0.3221-0.0541,0.5146-0.0887c0.1924-0.0348,0.3849-0.0693,0.5176-0.09
	v0.0001c0.9277-0.1094,1.9209-0.1396,2.8818-0.1689c2.53-0.078,5.1453-0.1597,7.2384-1.603
	c0.9656-0.1843,1.9435-0.4023,2.8885-0.6128c0.666-0.1484,1.3535-0.3018,2.0391-0.4443c-1.1865,1.9443-2.1865,3.7578-3.0566,5.5449
	c-1.0684,2.5635-3.2461,4.2354-5.3516,5.8525c-1.2354,0.9492-2.5137,1.9297-3.5566,3.0801
	c-2.1846,1.9434-3.2158,4.7363-4.084,7.4307l-0.0059,0.0186l0.0088,0.0166c0.8408,1.6807,1.6162,3.6768,0.9971,5.7451
	l-0.0176,0.0586l0.0615,0.002c0.1084,0.0029,0.2168,0.0049,0.3242,0.0049c4.4385,0,8.2266-2.5615,11.7197-5.1807
	c5.9355-3.2725,10.3291-8.5234,14.5771-13.6016c1.334-1.5947,2.7139-3.2432,4.1152-4.7979
	c4.042-4.4805,5.582-10.2832,7.0713-15.8945c0.6182-2.3311,1.2578-4.7412,2.0645-7.0029c1.6582-2.9111,3.6172-5.7783,5.5117-8.5508
	c4.5566-6.6689,9.2686-13.5645,10.3848-21.8379C1462.792,1021.8965,1462.2803,1016.6641,1460.3545,1011.8232z M1415.0996,1016.4854
	c4.3943,2.2855,9.8628,5.1295,10.103,10.7922c-0.1989,0.9834-0.4319,2.0313-0.7544,3.3953
	c-0.1621,0.1201-0.3965,0.2979-0.6279,0.4727c-0.2153,0.1639-0.4272,0.3246-0.5757,0.434
	c-0.6211,0.2139-1.2515,0.4392-1.8608,0.6569c-1.6589,0.5923-3.374,1.2056-5.0991,1.6671
	c-1.3948,0.0811-2.8059,0.1357-4.1704,0.1884c-0.7959,0.0313-1.6191,0.0625-2.4258,0.0996l0.158-3.4338
	c0.4357-1.4551,0.8123-2.9646,1.175-4.4246c0.8574-3.4463,1.7441-7.0088,3.4971-10.1504
	C1414.71,1016.2832,1414.9043,1016.3838,1415.0996,1016.4854z M1405.0635,1054.2158c0.4019-1.4218,0.8164-2.8921,1.368-4.2722
	c0.2877-0.3386,0.8522-0.9922,1.1271-1.2961c0.6899-0.5199,1.4377-1.0304,2.2843-1.5598l1.3027,0.0297
	c0.193,0.0232,0.385,0.036,0.5731,0.036c0.8433,0,1.6438-0.2461,2.3802-0.7307l0.0016-0.0007
	c1.5576-0.7441,3.4111-1.1748,5.833-1.3555l0.0029-0.0002c1.5986-0.1112,3.3142-0.1628,5.3984-0.1628
	c0.797,0,1.6504,0.0068,2.7559,0.0229c0.2288,1.2717,0.4379,2.4257,0.665,3.6011c-7.7959,2.1816-13.5938,4.3457-18.792,7.0127
	c-1.5801-0.3838-3.2617-0.7891-4.9453-1.165L1405.0635,1054.2158z M1065.4917,1719.2872c-0.3616-0.1991-0.96-0.543-1.4448-0.8214
	c-0.1914-0.1095-0.3647-0.2092-0.5087-0.2915c1.7958-2.6021,4.0055-5.5956,6.8036-8.1294c0.814-0.7268,1.6649-1.3798,2.5374-2.0371
	c-0.0203,0.5466-0.0559,1.5044-0.0757,2.0272c-1.2766,1.7697-1.488,3.7123-0.5725,5.2118
	C1070.0223,1717.1216,1067.4736,1718.3901,1065.4917,1719.2872z M1066.5283,757.9692l-0.0098,0.0187
	c-0.7405,1.2281-0.7255,2.6697-0.709,4.0648c0.0029,0.2484,0.0059,0.4957,0.0039,0.7404c-0.6643,4.5146-3.9404,7.8822-7.1094,11.139
	c-0.2949,0.3037-0.5889,0.6055-0.8838,0.9126c-2.2461,3.5225-4.8145,6.9028-7.2969,10.1719
	c-1.6836,2.2163-3.4238,4.5078-5.0518,6.8267l-0.0303,0.0425l0.0459,0.0254c0.209,0.1162,0.5039,0.229,0.8174,0.3481
	c0.7373,0.2813,1.6543,0.6309,1.7598,1.1836c0.0576,0.3008-0.1289,0.6514-0.5625,1.0493
	c-4.4912,6.1655-9.5811,12.0181-14.5029,17.6782c-3.6348,4.1802-7.3936,8.5024-10.8857,12.9209
	c-4.4893,5.7339-7.8096,12.3203-11.0215,18.6895c-2.0547,4.0752-4.1787,8.2881-6.5869,12.2319
	c-0.2861-3.6499-0.3467-7.3599-0.4053-10.9497c-0.0205-1.2603-0.042-2.564-0.0723-3.8442v-0.0001
	c0.0487-2.8386-0.2273-5.7502-0.8204-8.6533l0.0001-0.0024l-0.1605-1.1044l0.0004-0.0001
	c-0.0518-1.9312-0.0586-3.8994-0.0654-5.8032c-0.0166-4.6613-0.0332-9.4819-0.7156-14.1696c0-0.0018-0.0001-0.0035-0.0002-0.0052
	c-0.4844-2.2861-0.9404-4.6128-1.3818-6.8628c-0.332-1.6948-0.6758-3.4478-1.0283-5.168c-0.7793-3.4932-0.7197-7.106-0.6621-10.5996
	c0.043-2.5518,0.0859-5.1899-0.1963-7.7637c-0.1943-2.5488-0.8857-5.0371-1.5547-7.4429c-0.5696-2.0502-1.1584-4.1695-1.4363-6.3177
	l0.0007-0.0001c-0.2246-2.332-0.1816-4.7319-0.1406-7.0527c0.0645-3.5728,0.1296-7.2668-0.7795-10.7871l-0.0017-0.0103
	c-0.3154-0.9639-0.668-1.9336-1.0098-2.8711c-0.8042-2.2099-1.6353-4.495-2.0283-6.8575c0.0303-1.8472,0.0303-3.71,0.0303-5.5112
	l0,0c0.0505-0.4056,0.1385-1.1914,0.179-1.599c0.6091-3.4772,0.5554-7.0446,0.5046-10.4948
	c-0.0313-2.0513-0.0625-4.1729,0.0459-6.25c0.2499-5.458,0.3115-10.403,0.1906-15.1168c0.1796-1.3473,0.1083-2.8137,0.038-4.2313
	c-0.1514-3.0762-0.3076-6.2568,2.0615-8.5449c11.8662-14.856,23.3906-30.3765,34.5352-45.3862
	c2.7959-3.7646,5.6855-7.6563,8.5371-11.479c-1.3984,10.3721,1.5879,20.5811,4.4766,30.457
	c0.1475,0.5015,0.2939,1.0024,0.4385,1.499c0.6299,2.9028,2.4512,5.2588,4.2129,7.5371c0.5908,0.7642,1.2021,1.5547,1.7539,2.3491
	c3.2344,4.9263,9.0469,7.1069,14.2461,8.7627c2.4619,4.9336,5.3163,11.4944,5.5762,18.5227
	c-0.2661,1.4409-0.0237,2.9883,0.741,4.7292l0.2393,1.2715c-0.2068,2.2434,0.0459,4.1296,0.7732,5.7654
	c0.0991,0.3895,0.2834,1.1635,0.3765,1.5662c-0.0212,3.2424,0.2374,6.1538,0.7902,8.9006
	c-0.0001,0.0005-0.0001,0.0007-0.0001,0.0012c0.0283,0.2397,0.0713,0.5884,0.1152,0.9458c0.0503,0.4119,0.1022,0.833,0.1354,1.121
	l-0.0006,0.0001c0.2334,4.5928,0.1182,9.2637,0.0059,13.7803c-0.022,0.8993-0.0449,1.7981-0.0642,2.6974l-0.0022-0.0001
	l0.001,0.0497l-0.001,0.044l0.0009,0.0001c0.0651,3.5686-0.4918,7.0744-1.6552,10.4145c-0.5518,1.0708-1.21,2.1055-1.8467,3.1064
	C1067.8047,755.7188,1067.1055,756.8188,1066.5283,757.9692z M1124.1462,1662.7474c0.0001-0.0015,0.0002-0.0028,0.0002-0.0043
	c-0.2136-1.4714-0.2166-2.9847-0.0105-4.5068h0.0007c0.7773-6.3203,1.0371-12.917,0.7705-19.6084l0,0
	c-0.0352-1.251,0.0508-2.5482,0.2781-4.2109h0.0002c0.7375-4.9487,0.969-9.2659,0.7097-13.2058l0.0012-0.0002
	c0.0996-3.2559,0.2373-6.5566,0.3691-9.749c0.0693-1.6453,0.1375-3.2897,0.2009-4.9341c0.2943-0.854,0.6262-1.702,0.9465-2.522
	c0.1387-0.3529,0.2791-0.7162,0.4167-1.0764c-0.0718,2.9313,0.0477,5.9127,0.1682,8.7991l0.0156,0.3842
	c-0.1687,5.0112,0.0508,10.1105,0.2627,15.0406c0.0537,1.2412,0.1094,2.5244,0.1572,3.7852
	c-0.1221,7.1582-0.0967,14.4385-0.0713,21.4795c0.0381,10.7933,0.0774,21.9545-0.417,32.922
	c-0.2811-0.0763-0.6946-0.1877-1.0859-0.2931c-0.2861-0.0773-0.5549-0.1498-0.749-0.2013c0.2813-2.2853,0.0481-4.1738-0.7151-5.7666
	l-0.0486-0.1581c-0.1284-0.4214-0.3235-1.0557-0.4197-1.3962C1125.1362,1672.0621,1124.8816,1667.2281,1124.1462,1662.7474z
	 M1140.0947,1108.3418c0.0364,0.1636,0.0725,0.3262,0.1072,0.4878c-0.1313,0.5802-0.374,1.7284-0.4824,2.2448l-0.5839,0.2035
	c-0.3221-1.9877-0.7428-3.975-1.1512-5.8979c-0.1221-0.5796-0.2452-1.1582-0.3655-1.7368l0.0002-0.0005l-0.0017-0.0065
	c-0.0004-0.0021-0.0007-0.0042-0.0012-0.0062l-0.0066-0.0319c-0.0593-0.2975-0.1445-0.726-0.2317-1.1615
	c-0.084-0.4199-0.168-0.8418-0.2275-1.1426l0.3154,0.0801c0.9038,0.2299,1.8386,0.4679,2.7787,0.7181
	C1139.1453,1104.031,1139.6467,1106.3196,1140.0947,1108.3418z M1138.8848,1449.0479c-0.6494,2.2227-1.2568,4.4971-1.8447,6.6963
	c-0.9727,3.6445-1.9795,7.4111-3.2031,11.0498c-0.916-3.6406-1.584-7.3887-2.2305-11.0156
	c-0.4082-2.292-0.8301-4.6621-1.3115-6.9805c-2.8008-10.3564-5.9756-22.0947-8.8389-33.7764
	c-0.6985-3.5941-1.094-7.1854-1.4705-10.8641l0.0007-0.0001c-0.543-8.4132-0.502-17.0032,0.121-25.5317
	c0.0001-0.0001,0.0001-0.0002,0.0001-0.0005c0.1426-1.3281,0.2822-2.6563,0.4229-3.9863
	c1.2252-11.6215,2.4917-23.6392,5.4838-35.1642l0.0006,0.0001c1.2605-3.8115,1.937-7.5293,2.0125-11.051l0.0002-0.0007
	c0.0713-1.0244,0.1895-2.0674,0.3047-3.0771c0.2998-2.6445,0.6113-5.377,0.0986-8.0615l0.167,0.1302
	c0.1152,0.1504,0.29,0.3723,0.4658,0.5944c0.1738,0.2218,0.3472,0.4412,0.4625,0.5905c0.4562,1.8774,0.5052,3.8674,0.5531,5.7914
	l0.0046,0.1406h-0.0007c0.0205,1.3604,0.0088,2.749-0.0029,4.0928c-0.0332,3.9033-0.0684,7.9395,0.6846,11.8545h0.0002
	c0.0874,0.5385,0.2582,1.6403,0.3385,2.1909c-0.4537,7.1215,0.0675,14.3207,0.6896,21.6841l0,0
	c0.0195,0.3422,0.0566,1.0248,0.0771,1.4014l0.0032,0.067c0.0532,2.5757,0.3303,5.3719,0.87,8.7993
	c-0.0001,0.001-0.0001,0.0018-0.0001,0.0028l0.0596,0.7373c-0.1312,2.2224,0.1213,3.9751,0.7922,5.5129
	c1.197,4.3796,1.9187,8.9425,2.616,13.3552c0.6592,4.1709,1.3398,8.4834,2.4238,12.6426
	C1141.9639,1419.9922,1142.0508,1434.5771,1138.8848,1449.0479z M1152.2437,249.0283l0.2241,1.6846
	c-2.3358-2.0493-4.5059-4.3086-6.3606-6.2721c0.01-3.1122-0.3934-5.5603-1.2676-7.7006l0.0002-0.0005l-0.0059-0.0156
	c-0.4578-1.2576-0.7593-2.5466-0.9022-3.834c4.1644,3.1885,5.7289,8.1121,7.2401,12.8765
	C1151.5129,246.8442,1151.8667,247.9587,1152.2437,249.0283z M869.6387,1371.0184c-0.8857,1.4639-0.8438,3.2141-0.8057,4.759
	l-0.228,1.2896c-0.6766,1.5675-0.9431,3.1593-0.7922,4.7316l-0.1783,1.2303c-0.7416,1.6935-1.0094,3.2198-0.8226,4.6642
	l0.0012,0.0286c0.0927,2.3334-0.3989,4.7229-0.868,6.7867c-1.1221,3.9208-1.7816,8.2257-1.9613,12.7976
	c-0.0001,0.0002-0.0002,0.0004-0.0002,0.0006c-0.2593,2.9072-0.7393,5.6895-1.3403,9.0293c0,0.0005,0,0.001,0,0.0013
	c-1.1846,6.4846-1.7463,12.8599-1.6699,18.9492c-0.0361,0.2412-0.0867,0.589-0.1387,0.9469
	c-0.0623,0.4299-0.1265,0.8719-0.1703,1.1563h-0.0001c-0.8364,3.6318-0.7822,7.3994-0.73,11.043
	c0.0376,2.6367,0.0767,5.3633-0.2212,8.0283c0.0317,2.9258-0.1279,5.9082-0.2827,8.792
	c-0.2837,5.2949-0.5776,10.7705,0.3037,16.1152h0.0002c0.1255,1.0859,0.2073,2.204,0.2493,3.4209l0,0
	c-0.1357,6.1699-0.147,13.4307,0.8003,20.5068l0,0c0.137,1.2708,0.2317,2.4691,0.2894,3.6685
	c-0.2784,10.4476,0.2648,21.0531,0.7902,31.3091c0.0986,1.9199,0.1968,3.8398,0.29,5.7607
	c0.6802,7.5645,0.1274,15.2422-0.4067,22.667c-0.4321,5.9994-0.8789,12.2039-0.6733,18.3184
	c-0.0376,1.3593-0.1453,2.8049-0.3293,4.4229h-0.0002c-0.7563,4.3231-1.0249,8.8629-0.8208,13.8794
	c-0.0024,0.4585-0.0054,0.918-0.0088,1.3794c-0.0088,1.3701-0.0186,2.7881-0.0107,4.2031c0,0.0004,0,0.0007,0,0.0011
	c0.0186,1.1071,0.0381,2.2141,0.0571,3.3212c0.144,8.2393,0.2922,16.7585,0.1426,25.1462
	c-0.0594,0.2051-0.1458,0.5109-0.2324,0.8176c-0.0879,0.3105-0.1753,0.6211-0.2354,0.8262l-0.0006,0.0022
	c-0.6366,1.4106-0.9335,2.9894-0.8817,4.6906l-0.1187,1.2053c-0.6433,0.8191-0.9097,1.7778-0.7908,2.8513l-0.0298,0.6036
	c-1.4651,4.2947-2.6023,8.8667-1.0303,13.218c0.0201,0.2198,0.0477,0.5487,0.075,0.8772c0.0273,0.3291,0.0544,0.6567,0.0745,0.8765
	c-0.3264,2.2467-0.101,4.4452,0.6709,6.5382c0.0811,0.4863,0.2507,1.4528,0.3398,1.9275c0.1257,2.433,0.0989,4.9125,0.073,7.3112
	c-0.0259,2.3636-0.0521,4.8073,0.0664,7.2118c-0.0283,1.0157-0.1194,2.0835-0.2786,3.2716h-0.0002
	c-0.6587,3.3671-0.9111,6.9274-0.771,10.8833c-0.1052,0.3624-0.292,1.0886-0.3926,1.481l-0.0166,0.0641
	c-0.6945,1.6274-0.95,3.5037-0.781,5.7375l-0.2087,1.3621c-0.6987,1.7941-1.2633,3.7179-0.6814,5.6343l0.238,1.2489l-0.4937,0.9778
	c-0.8843,1.3936-1.1519,3.1361-0.7529,4.9099l0.0002,0.001l0.2158,1.5693l-1.0771-0.7646c-1.2344-1.7897-2.4097-3.6559-3.5466-5.46
	c-0.4968-0.7894-1.0103-1.6041-1.5206-2.4005c-0.2108-2.9816-0.1508-6.0134-0.0922-8.9452c0.0161-0.7947,0.032-1.6166,0.0428-2.423
	c0.0599-0.1895,0.1439-0.4711,0.2281-0.7538c0.0845-0.2836,0.1688-0.5656,0.2288-0.7559c1.167-2.2949,1.1929-4.7955,0.0713-6.8622
	c-0.7781-2.5681-1.3928-5.2299-1.9866-7.8038c-0.8789-3.8076-1.7881-7.7451-3.2441-11.457
	c-3.9612-11.2843-3.7229-23.2644-3.1379-34.5756c1.0958-4.733,1.0837-9.584,0.9509-13.2809
	c-0.0576-1.3613-0.0303-2.7549-0.0044-4.1025c0.0605-3.1044,0.123-6.3149-0.845-9.3583l0.0002-0.0011l-0.0027-0.0078
	c-0.0001-0.0006-0.0002-0.0012-0.0005-0.0018c-0.3943-1.3954-0.3962-2.8159-0.3389-4.1533l0.0007-0.0001
	c0.3364-5.6686,0.0806-11.6154-0.7598-17.6764c0-0.0001,0-0.0002,0-0.0004c-0.0386-0.5361-0.1328-1.5947-0.1831-2.1631
	l-0.0072-0.0702l0.0004-0.0001c0.2559-4.0615-0.0137-8.3612-0.8003-12.778c0-0.0001,0-0.0002,0-0.0004l-0.04-0.4199l-0.0001-0.0004
	c-0.0701-3.8503-0.3594-6.9429-0.9105-9.7327c-0.0161-0.1495-0.0457-0.3749-0.0742-0.5951
	c-0.0251-0.1901-0.0496-0.3737-0.0653-0.5067l0.0004-0.0001c0-3.895-0.0651-8.4216-0.8401-12.8557
	c-0.0161-0.168-0.0428-0.4166-0.0686-0.6609c-0.0234-0.2188-0.0458-0.4313-0.061-0.5833
	c-0.0195-4.7362-0.1001-9.7717-0.8301-14.7032c-0.019-0.2998-0.0449-0.738-0.0713-1.1813
	c-0.0288-0.4883-0.0581-0.9834-0.0791-1.3086c0-0.0004,0-0.0009,0-0.0013c-0.2089-4.5597-0.1528-9.1976-0.0986-13.6832
	c0.0649-5.3965,0.1323-10.9766-0.2612-16.4541c-0.3784-7.9053-0.2676-15.9551-0.1606-23.7402
	c0.1333-9.7109,0.2715-19.7529-0.5391-29.5918h-0.0005c0-0.0002,0-0.0006,0-0.001l-0.0596-0.5865l0.002-0.1351
	c0.0981-6.3525,0.1997-12.9197-0.9927-19.2792c0-0.0004,0-0.0007,0-0.0011c-0.1963-1.3652-0.2603-2.749-0.1895-4.1104l0.0005-0.0088
	l-0.0002-0.0005c0.3477-6.1744-0.5691-12.2489-1.7107-18.981h-0.0002l-0.2395-2.1941c0.3311-2.951,0.1615-5.9448-0.0029-8.8391
	c-0.1577-2.7842-0.3213-5.6631-0.0371-8.4961c0.4312-5.5223,0.2188-11.0828-0.6299-16.527c0-0.0005,0-0.0009,0-0.0013
	c-0.0303-0.29-0.0903-0.8701-0.1201-1.1602l-0.0002-0.0013c-0.2126-2.8802-0.3949-6.2891-0.1396-9.7358
	c0.0327-0.1083,0.0801-0.2622,0.1292-0.42c0.0537-0.1747,0.108-0.3505,0.1465-0.4796l0.0005,0.0001
	c1.5649-3.6025,0.8027-7.4502,0.0659-11.1719c-0.0754-0.3784-0.1499-0.7559-0.2218-1.1304
	c-0.0199-0.4117-0.058-1.2122-0.0785-1.6392l-0.0012-0.0239c0.2-2.0796,0.2068-4.2679,0.02-6.5035
	c0.019-0.3992,0.0725-1.1454,0.1047-1.5917l0.0045-0.0598c1.1544-5.1001,1.0326-10.4003,0.7605-14.9136
	c0.2406-1.4233,0.8434-2.7543,1.4269-4.0413c0.4341-0.957,0.8828-1.9463,1.1816-2.9707c0.7373-2.6992,1.0835-5.5176,1.4185-8.2432
	c0.1185-0.9679,0.2416-1.9686,0.3809-2.959h0.001c0.8755-3.8428,0.7813-7.8135,0.6899-11.6533
	c-0.0566-2.3926-0.1157-4.8662,0.061-7.2842l-0.0033-0.0009l0.0043-0.0402c0.0303-1.4108,0.0591-2.7434,0.0591-4.0811l0,0
	c0-0.0001,0-0.0002,0-0.0005c0-0.0001,0-0.0002,0-0.0005l0,0c0.0547-3.0364-0.2104-6.2727-0.8103-9.8954
	c-0.015-0.2988-0.0359-0.7468-0.0564-1.1935c-0.0195-0.4232-0.0389-0.8429-0.053-1.1309
	c0.9548-7.3907,0.9143-14.9541,0.8743-22.2695c-0.0059-1.1268-0.0122-2.2537-0.0146-3.3805
	c0.0496-0.4954,0.1653-1.4587,0.2275-1.9779l0.0017-0.0176h0.0002c1.2661-11.8721,0.9639-24.0156,0.6714-35.7607
	c-0.0796-3.1924-0.1616-6.4932-0.2109-9.7354c-0.2446-4.7012-0.0439-9.4756,0.1499-14.0928
	c0.1787-4.251,0.3633-8.6475,0.2002-12.9775c-0.5835-15.4388-0.2896-31.2781-0.0303-45.2526
	c0.0579-0.288,0.166-0.8557,0.2175-1.1616l0.0007,0.0001c1.145-3.6514,1.1484-7.7676,0.0107-11.9063l0,0
	c-0.2778-1.3439-0.3921-2.799-0.3389-4.3252l0.0005-0.0098l-0.0005-0.0011c0.0583-5.2175-0.0225-10.5245-0.1006-15.6571
	c-0.1357-8.874-0.2759-18.0488,0.3008-27.0615l0,0c0.0283-0.2091,0.0967-0.6357,0.1377-0.8712l0.001,0.0001
	c0.9917-3.8848,1.002-7.8076,0.0298-11.3447h-0.0002c-0.3534-1.667-0.7954-3.3368-1.2234-4.9512
	c-0.3579-1.3512-0.7279-2.7472-1.0449-4.1383c-0.0518-1.3044-0.0337-2.6372-0.0166-3.9261c0.0396-2.9602,0.0806-6.0209-0.7144-8.952
	c0,0,0,0,0-0.0001c-0.3896-1.7373-0.5713-3.541-0.7476-5.2861c-0.2393-2.375-0.4868-4.8301-1.2622-7.1563
	c2.5811,1.6191,3.5166,4.418,4.4214,7.127c0.4302,1.2871,0.875,2.6172,1.4922,3.8105c1.9033,3.1875,1.731,6.8574,1.564,10.4063
	c-0.0723,1.541-0.1475,3.1338-0.0503,4.6563c-0.1523,2.9189,0.4609,5.7969,1.0542,8.5791c0.5381,2.5244,1.0947,5.1348,1.0757,7.7637
	v0.0076c-0.1782,1.5225,0.1046,3.1373,0.817,4.6742l0.0057,0.0155c0.9146,2.4375,1.334,4.8975,1.2471,7.3115v0.0013
	c-0.3009,1.9554-0.072,3.8912,0.6609,5.6001l0.2494,1.3566c-0.054,1.7527,0.2125,3.3497,0.7928,4.7494
	c1.072,3.151,1.5317,6.172,1.3667,8.9811c-0.4294,6.6042,0.5215,13.0494,2.7515,18.6436l0,0
	c0.458,1.9033,0.812,3.8643,1.1548,5.7617c0.5396,2.9883,1.0972,6.0781,2.0767,9.0225l0,0
	c0.6582,2.2878,0.9374,4.1641,0.8774,5.9026c-0.1063,1.5068-0.0864,3.2375,0.8645,4.6537l0.4646,0.8597l-0.0396,0.6846
	l0.0001,0.0004c-0.4344,3.9425,0.1563,7.8479,0.7206,10.8107c0,0.0005,0,0.001,0,0.0015l0.0303,0.1747l-0.0005,0.0001
	c0.2788,3.9207,1.0068,7.6355,1.9298,12.0828l0.0199,0.7413c-0.0984,1.5859,0.1716,3.1699,0.803,4.7091
	c0.5018,2.1302,1.1296,4.2877,1.7375,6.374c1.417,4.8679,2.8826,9.9008,2.8896,15.0488c-0.0415,1.3298-0.0967,2.6869-0.1494,4
	c-0.2534,6.2733-0.5149,12.7593,0.5088,19.0326v0.0006l0.0005,0.0022c0.0002,0.0012,0.0002,0.0024,0.0005,0.0037h0.0002
	l0.0002,0.001c1.436,7.2422,3.4053,14.1143,5.853,20.4297c1.7068,3.9503,0.7507,8.3829-0.5403,12.5959l-0.0012-0.0002
	c-1.2246,3.5059-1.2603,7.4482-0.1006,11.1006l0.0006-0.0001l0.0004,0.0021c0.3809,1.0049,0.8813,1.9756,1.3652,2.9141
	c0.5723,1.1094,1.1641,2.2568,1.564,3.4717c0.501,1.8105,0.4463,3.7227,0.3936,5.5713c-0.0229,0.7998-0.0464,1.627-0.0254,2.4346
	c-0.0986,2.4766,0.9824,4.7285,2.0278,6.9072c0.3315,0.6904,0.6743,1.4043,0.9702,2.1094l-0.1157,0.5548l-0.001-0.0001
	c-0.8512,3.6313-1.02,7.4196-1.1112,10.6853c-0.1473,0.9612-0.5038,1.8407-0.8815,2.7717c-0.129,0.3175-0.2618,0.6458-0.3848,0.974
	c-0.6694,1.2469-0.9296,2.7192-0.8442,4.7712c-0.3125,0.9882-0.9067,1.8666-1.4824,2.7157
	c-0.6008,0.8878-1.2214,1.8062-1.5424,2.8744l-0.0011-0.0004c-1.4351,3.3398-1.9888,6.1426-1.7441,8.8223h0.0002
	c0.0745,1.7054,0.564,3.3619,1.0378,4.9639c0.5522,1.8691,1.1235,3.8008,1.0322,5.8096c-0.1567,2.9111,0.229,5.8389,0.6021,8.6699
	c0.0793,0.6053,0.1616,1.2301,0.2378,1.8451c0.049,3.6919,0.3174,6.4922,0.8711,9.0778h0.0002
	c0.0369,0.1958,0.0911,0.5844,0.1287,0.8612v0.0011c0.2802,4.682,0.5286,10.8542-0.0396,17.0778l-0.2291,0.5774
	c-0.8788,1.772-1.1215,3.3049-0.7417,4.6837l0.1989,1.2422L869.6387,1371.0184z M859.7183,1781.1162
	c-1.6626,1.541-1.6865,3.8359-1.7095,6.0566c-0.0107,1.0518-0.022,2.1377-0.2134,3.1113c-1.7007-2.4297-3.0908-5.0918-4.4355-7.668
	c-1.438-2.7539-2.9248-5.6025-4.7915-8.1631c-1.1367-1.5986-2.2129-3.2754-3.2534-4.8975c-0.957-1.4922-1.9463-3.0342-2.9785-4.5078
	c1.3535-2.1914,2.8359-4.3477,4.2695-6.4336c1.4639-2.1289,2.9771-4.3311,4.354-6.5703l0.0004-0.001h0.0001
	c1.2637-2.2197,1.1738-4.7549,1.0869-7.2061c-0.0376-1.0674-0.0767-2.1719-0.0005-3.2236l-0.0027-0.0007l0.031-0.1829
	c0.2136-1.3877,0.4348-2.8225,1.0122-4.0964l1.002-0.5093l-0.2163,1.3822c-0.3938,1.2344,0.144,2.4418,0.665,3.6102l0.0963,0.2159
	l0.1588,1.2415c-0.0483,1.2631,0.2249,2.5427,0.8124,3.8018c0.422,1.4701,0.7955,3.0093,1.1561,4.4987
	c1.2756,5.2625,2.5957,10.7047,6.4091,14.8015c-0.4384,3.1171-0.5348,6.3142-0.6278,9.4065
	c-0.0313,1.0439-0.064,2.1221-0.1089,3.1836c-0.8379,0.6133-1.7261,1.3164-2.7144,2.1484l0.0005,0.0009L859.7183,1781.1162z
	 M570.7817,969.3086c-1.0146-0.5195-1.9736-1.1523-2.9014-1.7646c-0.4858-0.3213-0.9878-0.6523-1.4912-0.9629
	c1.6689-3.8418,3.1919-7.7095,4.5278-11.4985c3.1213,3.6439,5.2255,7.2301,6.4343,10.9615
	c-1.1744,0.4496-2.2616,1.0588-3.2746,1.6454l-0.0069,0.0041C573.0479,968.2506,571.942,968.7943,570.7817,969.3086z"/>
</svg>
